M48
;GenerationSoftware,Autodesk,EAGLE,9.5.1*%
;CreationDate,2019-11-04T10:46:59Z*%
FMAT,2
ICI,OFF
METRIC,TZ,000.000
T6C0.300
T5C1.000
T4C1.016
T3C2.000
T2C2.286
T1C6.000
%
G90
M71
T1
X21000Y54000
X57000Y54000
T2
X27604Y21000
X14396Y21000
X63604Y21000
X50396Y21000
T3
X70000Y8000
X8000Y67000
X34000Y67000
X34000Y41000
X8000Y41000
X70000Y34000
X44000Y67000
X70000Y67000
X70000Y41000
X44000Y41000
X44000Y34000
X34000Y8000
X34000Y34000
X8000Y34000
X8000Y8000
X44000Y8000
T4
X54460Y13507
X18460Y13507
X23540Y13507
X18460Y27985
X23540Y27985
X21000Y13507
X57000Y13507
X59540Y27985
X54460Y27985
X59540Y13507
T5
X22270Y24397
X53190Y17945
X24810Y17945
X22270Y17945
X19730Y17945
X17190Y17945
X55730Y17945
X58270Y17945
X60810Y17945
X58270Y24397
X55730Y24397
X19730Y24397
T6
X58463Y7477
X49319Y15859
X45763Y19796
X49108Y10314
X55465Y12303
X54907Y7262
X56177Y5699
X49256Y8430
X49319Y9636
X61527Y6624
X50843Y7724
X52057Y17179
X52494Y22082
X54399Y19536
X51478Y17560
X50208Y9890
X50152Y9138
X66464Y9509
X9250Y38750
X9750Y38750
X9250Y36250
X9750Y36250
X32250Y36250
X32750Y36250
X32750Y38750
X32250Y38750
X36250Y32250
X36250Y33250
X36250Y9250
X36250Y9750
X32750Y5750
X32250Y5750
X9750Y5625
X9250Y5625
X5750Y9250
X5750Y9750
X5750Y32250
X5750Y32750
X5750Y42250
X5750Y42750
X36250Y42250
X36250Y42750
X36250Y65250
X36250Y65750
X32750Y69250
X32250Y69250
X9250Y69250
X9750Y69250
X5750Y65750
X5750Y65250
X60749Y6461
X53002Y9890
X53637Y9890
X52367Y9890
X60368Y9890
X5750Y33250
X5750Y33750
X8750Y36250
X8250Y36250
X8750Y38750
X8250Y38750
X5750Y41750
X5750Y41250
X5750Y66250
X5750Y66750
X8750Y69250
X8250Y69250
X33250Y69250
X33750Y69250
X36250Y66250
X36250Y66750
X36250Y41750
X36250Y41250
X17002Y9255
X36250Y33750
X36250Y8750
X36250Y8250
X33250Y5750
X33750Y5750
X8750Y5625
X8250Y5625
X5750Y8750
X5750Y8250
X33250Y36250
X33750Y36250
X33250Y38750
X33750Y38750
X45250Y38750
X45750Y38750
X45250Y36250
X45750Y36250
X68250Y36250
X68750Y36250
X68750Y38750
X68250Y38750
X72250Y32250
X72250Y33250
X72250Y9250
X72250Y9750
X68750Y5750
X68250Y5750
X45750Y5625
X45250Y5625
X41750Y9250
X41750Y9750
X41750Y32250
X41750Y32750
X41750Y42250
X41750Y42750
X72250Y42250
X72250Y42750
X72250Y65250
X72250Y65750
X68750Y69250
X68250Y69250
X45250Y69250
X45750Y69250
X41750Y65750
X41750Y65250
X61003Y9890
X61638Y9890
X61638Y9255
X60368Y9255
X61003Y9255
X41750Y33250
X41750Y33750
X44750Y36250
X44250Y36250
X44750Y38750
X44250Y38750
X41750Y41750
X41750Y41250
X41750Y66250
X41750Y66750
X44750Y69250
X44250Y69250
X69250Y69250
X69750Y69250
X72250Y66250
X72250Y66750
X72250Y41750
X72250Y41250
X72250Y32750
X72250Y33750
X72250Y8750
X72250Y8250
X69250Y5750
X69750Y5750
X44750Y5625
X44250Y5625
X41750Y8750
X41750Y8250
X69250Y36250
X69750Y36250
X69250Y38750
X69750Y38750
X53637Y9255
X52367Y9255
X53002Y9255
X30464Y9509
X14152Y9138
X14208Y9890
X15478Y17560
X18399Y19536
X16494Y22082
X16057Y17179
X14843Y7724
X25527Y6624
X13319Y9636
X13256Y8430
X20177Y5699
X18907Y7262
X19465Y12303
X13108Y10314
X9763Y19796
X13319Y15859
X22463Y7477
X24749Y6461
X17002Y9890
X17637Y9890
X16367Y9890
X24368Y9890
X25003Y9890
X25638Y9890
X25638Y9255
X24368Y9255
X25003Y9255
X17637Y9255
X16367Y9255
X36250Y32750
M30