G04 EAGLE Gerber RS-274X export*
G75*
%MOMM*%
%FSLAX34Y34*%
%LPD*%
%INTop Copper*%
%IPPOS*%
%AMOC8*
5,1,8,0,0,1.08239X$1,22.5*%
G01*
%ADD10P,1.924489X8X22.500000*%
%ADD11C,1.778000*%
%ADD12C,0.300000*%
%ADD13R,0.600000X0.700000*%
%ADD14C,1.524000*%
%ADD15C,3.302000*%
%ADD16C,0.270000*%
%ADD17R,2.700000X2.700000*%
%ADD18C,0.264000*%
%ADD19R,2.600000X2.600000*%
%ADD20R,0.700000X0.600000*%
%ADD21C,3.642000*%
%ADD22C,0.127000*%
%ADD23P,0.489673X8X22.500000*%


D10*
X171900Y179450D03*
D11*
X197300Y179450D03*
X222700Y179450D03*
X248100Y179450D03*
D12*
X125247Y114367D02*
X120145Y119159D01*
X125247Y114367D02*
X120455Y109265D01*
X115353Y114057D01*
X120145Y119159D01*
X117421Y112115D02*
X123132Y112115D01*
X124610Y114965D02*
X116206Y114965D01*
X118883Y117815D02*
X121576Y117815D01*
X108139Y106373D02*
X113241Y101581D01*
X108449Y96479D01*
X103347Y101271D01*
X108139Y106373D01*
X105415Y99329D02*
X111126Y99329D01*
X112604Y102179D02*
X104200Y102179D01*
X106877Y105029D02*
X109570Y105029D01*
X263346Y326114D02*
X269620Y323012D01*
X263346Y326114D02*
X266448Y332388D01*
X272722Y329286D01*
X269620Y323012D01*
X271029Y325862D02*
X263856Y325862D01*
X264631Y328712D02*
X272438Y328712D01*
X268119Y331562D02*
X266040Y331562D01*
X271118Y341838D02*
X277392Y338736D01*
X271118Y341838D02*
X274220Y348112D01*
X280494Y345010D01*
X277392Y338736D01*
X278801Y341586D02*
X271628Y341586D01*
X272403Y344436D02*
X280210Y344436D01*
X275891Y347286D02*
X273812Y347286D01*
X296824Y303752D02*
X301824Y298854D01*
X296824Y303752D02*
X301722Y308752D01*
X306722Y303854D01*
X301824Y298854D01*
X304616Y301704D02*
X298915Y301704D01*
X297610Y304554D02*
X306007Y304554D01*
X303098Y307404D02*
X300401Y307404D01*
X309096Y316284D02*
X314096Y311386D01*
X309096Y316284D02*
X313994Y321284D01*
X318994Y316386D01*
X314096Y311386D01*
X316888Y314236D02*
X311187Y314236D01*
X309882Y317086D02*
X318279Y317086D01*
X315370Y319936D02*
X312673Y319936D01*
X321683Y272083D02*
X324915Y265875D01*
X321683Y272083D02*
X327891Y275315D01*
X331123Y269107D01*
X324915Y265875D01*
X323431Y268725D02*
X330389Y268725D01*
X329838Y271575D02*
X321947Y271575D01*
X326181Y274425D02*
X328354Y274425D01*
X337241Y280183D02*
X340473Y273975D01*
X337241Y280183D02*
X343449Y283415D01*
X346681Y277207D01*
X340473Y273975D01*
X338989Y276825D02*
X345947Y276825D01*
X345396Y279675D02*
X337505Y279675D01*
X341739Y282525D02*
X343912Y282525D01*
X335454Y234254D02*
X336597Y227349D01*
X335454Y234254D02*
X342359Y235397D01*
X343502Y228492D01*
X336597Y227349D01*
X336125Y230199D02*
X343219Y230199D01*
X342748Y233049D02*
X335653Y233049D01*
X352758Y237118D02*
X353901Y230213D01*
X352758Y237118D02*
X359663Y238261D01*
X360806Y231356D01*
X353901Y230213D01*
X353429Y233063D02*
X360523Y233063D01*
X360052Y235913D02*
X352957Y235913D01*
X336781Y194039D02*
X335710Y187122D01*
X336781Y194039D02*
X343698Y192968D01*
X342627Y186051D01*
X335710Y187122D01*
X335985Y188901D02*
X343068Y188901D01*
X343510Y191751D02*
X336427Y191751D01*
X354115Y191355D02*
X353044Y184438D01*
X354115Y191355D02*
X361032Y190284D01*
X359961Y183367D01*
X353044Y184438D01*
X353319Y186217D02*
X360402Y186217D01*
X360844Y189067D02*
X353761Y189067D01*
X325521Y155386D02*
X322354Y149145D01*
X325521Y155386D02*
X331762Y152219D01*
X328595Y145978D01*
X322354Y149145D01*
X322979Y148828D02*
X330041Y148828D01*
X331487Y151678D02*
X323639Y151678D01*
X325086Y154528D02*
X327212Y154528D01*
X341163Y147450D02*
X337996Y141209D01*
X341163Y147450D02*
X347404Y144283D01*
X344237Y138042D01*
X337996Y141209D01*
X338621Y140892D02*
X345683Y140892D01*
X347129Y143742D02*
X339281Y143742D01*
X340728Y146592D02*
X342854Y146592D01*
X302794Y122155D02*
X297845Y117206D01*
X302794Y122155D02*
X307743Y117206D01*
X302794Y112257D01*
X297845Y117206D01*
X299944Y115107D02*
X305644Y115107D01*
X306992Y117957D02*
X298596Y117957D01*
X301446Y120807D02*
X304142Y120807D01*
X315196Y109753D02*
X310247Y104804D01*
X315196Y109753D02*
X320145Y104804D01*
X315196Y99855D01*
X310247Y104804D01*
X312346Y102705D02*
X318046Y102705D01*
X319394Y105555D02*
X310998Y105555D01*
X313848Y108405D02*
X316544Y108405D01*
X99701Y145485D02*
X96340Y151624D01*
X99701Y145485D02*
X93562Y142124D01*
X90201Y148263D01*
X96340Y151624D01*
X98768Y144974D02*
X92002Y144974D01*
X90441Y147824D02*
X98420Y147824D01*
X96860Y150674D02*
X94605Y150674D01*
X80954Y143200D02*
X84315Y137061D01*
X78176Y133700D01*
X74815Y139839D01*
X80954Y143200D01*
X83382Y136550D02*
X76616Y136550D01*
X75055Y139400D02*
X83034Y139400D01*
X81474Y142250D02*
X79219Y142250D01*
X85104Y183004D02*
X83816Y189884D01*
X85104Y183004D02*
X78224Y181716D01*
X76936Y188596D01*
X83816Y189884D01*
X84812Y184566D02*
X77690Y184566D01*
X77157Y187416D02*
X84278Y187416D01*
X66576Y186658D02*
X67864Y179778D01*
X60984Y178490D01*
X59696Y185370D01*
X66576Y186658D01*
X67572Y181340D02*
X60450Y181340D01*
X59917Y184190D02*
X67038Y184190D01*
X82906Y223203D02*
X83819Y230142D01*
X82906Y223203D02*
X75967Y224116D01*
X76880Y231055D01*
X83819Y230142D01*
X83281Y226053D02*
X76222Y226053D01*
X76597Y228903D02*
X83656Y228903D01*
X66429Y232432D02*
X65516Y225493D01*
X58577Y226406D01*
X59490Y233345D01*
X66429Y232432D01*
X65891Y228343D02*
X58832Y228343D01*
X59207Y231193D02*
X66266Y231193D01*
X93307Y262073D02*
X96343Y268379D01*
X93307Y262073D02*
X87001Y265109D01*
X90037Y271415D01*
X96343Y268379D01*
X94679Y264923D02*
X87387Y264923D01*
X88284Y267773D02*
X96051Y267773D01*
X91682Y270623D02*
X89656Y270623D01*
X80539Y275985D02*
X77503Y269679D01*
X71197Y272715D01*
X74233Y279021D01*
X80539Y275985D01*
X78875Y272529D02*
X71583Y272529D01*
X72480Y275379D02*
X80247Y275379D01*
X75878Y278229D02*
X73852Y278229D01*
X115302Y295794D02*
X120147Y300845D01*
X115302Y295794D02*
X110251Y300639D01*
X115096Y305690D01*
X120147Y300845D01*
X118036Y298644D02*
X112331Y298644D01*
X111071Y301494D02*
X119470Y301494D01*
X116499Y304344D02*
X113805Y304344D01*
X107487Y312985D02*
X102642Y307934D01*
X97591Y312779D01*
X102436Y317830D01*
X107487Y312985D01*
X105376Y310784D02*
X99671Y310784D01*
X98411Y313634D02*
X106810Y313634D01*
X103839Y316484D02*
X101145Y316484D01*
X146697Y320998D02*
X152870Y324295D01*
X146697Y320998D02*
X143400Y327171D01*
X149573Y330468D01*
X152870Y324295D01*
X152033Y323848D02*
X145175Y323848D01*
X143653Y326698D02*
X151587Y326698D01*
X150064Y329548D02*
X147850Y329548D01*
X144608Y339767D02*
X138435Y336470D01*
X135138Y342643D01*
X141311Y345940D01*
X144608Y339767D01*
X143771Y339320D02*
X136913Y339320D01*
X135391Y342170D02*
X143325Y342170D01*
X141802Y345020D02*
X139588Y345020D01*
X184373Y335182D02*
X191266Y336397D01*
X184373Y335182D02*
X183158Y342075D01*
X190051Y343290D01*
X191266Y336397D01*
X190978Y338032D02*
X183871Y338032D01*
X183368Y340882D02*
X190475Y340882D01*
X188220Y353671D02*
X181327Y352456D01*
X180112Y359349D01*
X187005Y360564D01*
X188220Y353671D01*
X187932Y355306D02*
X180825Y355306D01*
X180322Y358156D02*
X187429Y358156D01*
X224593Y336941D02*
X231522Y335954D01*
X224593Y336941D02*
X225580Y343870D01*
X232509Y342883D01*
X231522Y335954D01*
X231928Y338804D02*
X224858Y338804D01*
X225264Y341654D02*
X232334Y341654D01*
X233994Y353320D02*
X227065Y354307D01*
X228052Y361236D01*
X234981Y360249D01*
X233994Y353320D01*
X234400Y356170D02*
X227330Y356170D01*
X227736Y359020D02*
X234806Y359020D01*
D13*
G36*
X133623Y133569D02*
X137731Y137942D01*
X142833Y133151D01*
X138725Y128778D01*
X133623Y133569D01*
G37*
G36*
X126777Y126279D02*
X130885Y130652D01*
X135987Y125861D01*
X131879Y121488D01*
X126777Y126279D01*
G37*
G36*
X260903Y305312D02*
X258245Y299934D01*
X251971Y303036D01*
X254629Y308414D01*
X260903Y305312D01*
G37*
G36*
X265333Y314276D02*
X262675Y308898D01*
X256401Y312000D01*
X259059Y317378D01*
X265333Y314276D01*
G37*
G36*
X288030Y284749D02*
X283832Y280462D01*
X278832Y285359D01*
X283030Y289646D01*
X288030Y284749D01*
G37*
G36*
X295026Y291893D02*
X290828Y287606D01*
X285828Y292503D01*
X290026Y296790D01*
X295026Y291893D01*
G37*
G36*
X307413Y256764D02*
X302092Y253994D01*
X298859Y260202D01*
X304180Y262972D01*
X307413Y256764D01*
G37*
G36*
X316283Y261382D02*
X310962Y258612D01*
X307729Y264820D01*
X313050Y267590D01*
X316283Y261382D01*
G37*
G36*
X317129Y224139D02*
X311210Y223160D01*
X310067Y230065D01*
X315986Y231044D01*
X317129Y224139D01*
G37*
G36*
X326995Y225773D02*
X321076Y224794D01*
X319933Y231699D01*
X325852Y232678D01*
X326995Y225773D01*
G37*
G36*
X316208Y190114D02*
X310279Y191032D01*
X311350Y197948D01*
X317279Y197030D01*
X316208Y190114D01*
G37*
G36*
X326090Y188584D02*
X320161Y189502D01*
X321232Y196418D01*
X327161Y195500D01*
X326090Y188584D01*
G37*
G36*
X304751Y158059D02*
X299402Y160774D01*
X302569Y167015D01*
X307918Y164300D01*
X304751Y158059D01*
G37*
G36*
X313669Y153535D02*
X308320Y156250D01*
X311487Y162491D01*
X316836Y159776D01*
X313669Y153535D01*
G37*
G36*
X283893Y131158D02*
X279650Y135401D01*
X284599Y140350D01*
X288842Y136107D01*
X283893Y131158D01*
G37*
G36*
X290965Y124086D02*
X286722Y128329D01*
X291671Y133278D01*
X295914Y129035D01*
X290965Y124086D01*
G37*
G36*
X113634Y161121D02*
X118896Y164002D01*
X122258Y157863D01*
X116996Y154982D01*
X113634Y161121D01*
G37*
G36*
X104862Y156319D02*
X110124Y159200D01*
X113486Y153061D01*
X108224Y150180D01*
X104862Y156319D01*
G37*
G36*
X103209Y193526D02*
X109105Y194630D01*
X110393Y187750D01*
X104497Y186646D01*
X103209Y193526D01*
G37*
G36*
X93379Y191686D02*
X99275Y192790D01*
X100563Y185910D01*
X94667Y184806D01*
X93379Y191686D01*
G37*
G36*
X103381Y227566D02*
X109329Y226783D01*
X108415Y219844D01*
X102467Y220627D01*
X103381Y227566D01*
G37*
G36*
X93467Y228872D02*
X99415Y228089D01*
X98501Y221150D01*
X92553Y221933D01*
X93467Y228872D01*
G37*
G36*
X114139Y259859D02*
X119545Y257257D01*
X116509Y250951D01*
X111103Y253553D01*
X114139Y259859D01*
G37*
G36*
X105129Y264195D02*
X110535Y261593D01*
X107499Y255287D01*
X102093Y257889D01*
X105129Y264195D01*
G37*
G36*
X134406Y287207D02*
X138736Y283054D01*
X133892Y278003D01*
X129562Y282156D01*
X134406Y287207D01*
G37*
G36*
X127188Y294129D02*
X131518Y289976D01*
X126674Y284925D01*
X122344Y289078D01*
X127188Y294129D01*
G37*
G36*
X162175Y306894D02*
X165001Y301603D01*
X158827Y298306D01*
X156001Y303597D01*
X162175Y306894D01*
G37*
G36*
X157465Y315716D02*
X160291Y310425D01*
X154117Y307128D01*
X151291Y312419D01*
X157465Y315716D01*
G37*
G36*
X194692Y316967D02*
X195734Y311059D01*
X188842Y309843D01*
X187800Y315751D01*
X194692Y316967D01*
G37*
G36*
X192956Y326815D02*
X193998Y320907D01*
X187106Y319691D01*
X186064Y325599D01*
X192956Y326815D01*
G37*
G36*
X228729Y316422D02*
X227884Y310483D01*
X220955Y311470D01*
X221800Y317409D01*
X228729Y316422D01*
G37*
G36*
X230139Y326322D02*
X229294Y320383D01*
X222365Y321370D01*
X223210Y327309D01*
X230139Y326322D01*
G37*
D14*
X210000Y135070D03*
X235400Y279850D03*
D15*
X276040Y210000D03*
X143960Y210000D03*
D14*
X184600Y279850D03*
X235400Y135070D03*
X184600Y135070D03*
D16*
X266782Y80050D02*
X272180Y80050D01*
X272180Y85050D02*
X266782Y85050D01*
X266782Y90050D02*
X272180Y90050D01*
X272180Y95050D02*
X266782Y95050D01*
X266782Y100050D02*
X272180Y100050D01*
X272180Y105050D02*
X266782Y105050D01*
X262530Y109302D02*
X262530Y114700D01*
X257530Y114700D02*
X257530Y109302D01*
X252530Y109302D02*
X252530Y114700D01*
X247530Y114700D02*
X247530Y109302D01*
X242530Y109302D02*
X242530Y114700D01*
X237530Y114700D02*
X237530Y109302D01*
X233278Y105050D02*
X227880Y105050D01*
X227880Y100050D02*
X233278Y100050D01*
X233278Y95050D02*
X227880Y95050D01*
X227880Y90050D02*
X233278Y90050D01*
X233278Y85050D02*
X227880Y85050D01*
X227880Y80050D02*
X233278Y80050D01*
X237530Y75798D02*
X237530Y70400D01*
X242530Y70400D02*
X242530Y75798D01*
X247530Y75798D02*
X247530Y70400D01*
X252530Y70400D02*
X252530Y75798D01*
X257530Y75798D02*
X257530Y70400D01*
X262530Y70400D02*
X262530Y75798D01*
D17*
X250030Y92550D03*
D13*
X207540Y75000D03*
X217540Y75000D03*
X207540Y63750D03*
X217540Y63750D03*
D10*
X197300Y243970D03*
D11*
X222700Y243970D03*
D18*
X192259Y82550D02*
X186027Y82550D01*
X186027Y87550D02*
X192259Y87550D01*
X192259Y92550D02*
X186027Y92550D01*
X186027Y97550D02*
X192259Y97550D01*
X192259Y102550D02*
X186027Y102550D01*
X180020Y108557D02*
X180020Y114789D01*
X175020Y114789D02*
X175020Y108557D01*
X170020Y108557D02*
X170020Y114789D01*
X165020Y114789D02*
X165020Y108557D01*
X160020Y108557D02*
X160020Y114789D01*
X154013Y102550D02*
X147781Y102550D01*
X147781Y97550D02*
X154013Y97550D01*
X154013Y92550D02*
X147781Y92550D01*
X147781Y87550D02*
X154013Y87550D01*
X154013Y82550D02*
X147781Y82550D01*
X160020Y76543D02*
X160020Y70311D01*
X165020Y70311D02*
X165020Y76543D01*
X170020Y76543D02*
X170020Y70311D01*
X175020Y70311D02*
X175020Y76543D01*
X180020Y76543D02*
X180020Y70311D01*
D19*
X170020Y92550D03*
D20*
X209898Y97550D03*
X209898Y87550D03*
D21*
X80000Y80000D03*
X80000Y340000D03*
X340000Y340000D03*
X340000Y80000D03*
D10*
X531900Y179450D03*
D11*
X557300Y179450D03*
X582700Y179450D03*
X608100Y179450D03*
D12*
X485247Y114367D02*
X480145Y119159D01*
X485247Y114367D02*
X480455Y109265D01*
X475353Y114057D01*
X480145Y119159D01*
X477421Y112115D02*
X483132Y112115D01*
X484610Y114965D02*
X476206Y114965D01*
X478883Y117815D02*
X481576Y117815D01*
X468139Y106373D02*
X473241Y101581D01*
X468449Y96479D01*
X463347Y101271D01*
X468139Y106373D01*
X465415Y99329D02*
X471126Y99329D01*
X472604Y102179D02*
X464200Y102179D01*
X466877Y105029D02*
X469570Y105029D01*
X623346Y326114D02*
X629620Y323012D01*
X623346Y326114D02*
X626448Y332388D01*
X632722Y329286D01*
X629620Y323012D01*
X631029Y325862D02*
X623856Y325862D01*
X624631Y328712D02*
X632438Y328712D01*
X628119Y331562D02*
X626040Y331562D01*
X631118Y341838D02*
X637392Y338736D01*
X631118Y341838D02*
X634220Y348112D01*
X640494Y345010D01*
X637392Y338736D01*
X638801Y341586D02*
X631628Y341586D01*
X632403Y344436D02*
X640210Y344436D01*
X635891Y347286D02*
X633812Y347286D01*
X656824Y303752D02*
X661824Y298854D01*
X656824Y303752D02*
X661722Y308752D01*
X666722Y303854D01*
X661824Y298854D01*
X664616Y301704D02*
X658915Y301704D01*
X657610Y304554D02*
X666007Y304554D01*
X663098Y307404D02*
X660401Y307404D01*
X669096Y316284D02*
X674096Y311386D01*
X669096Y316284D02*
X673994Y321284D01*
X678994Y316386D01*
X674096Y311386D01*
X676888Y314236D02*
X671187Y314236D01*
X669882Y317086D02*
X678279Y317086D01*
X675370Y319936D02*
X672673Y319936D01*
X681683Y272083D02*
X684915Y265875D01*
X681683Y272083D02*
X687891Y275315D01*
X691123Y269107D01*
X684915Y265875D01*
X683431Y268725D02*
X690389Y268725D01*
X689838Y271575D02*
X681947Y271575D01*
X686181Y274425D02*
X688354Y274425D01*
X697241Y280183D02*
X700473Y273975D01*
X697241Y280183D02*
X703449Y283415D01*
X706681Y277207D01*
X700473Y273975D01*
X698989Y276825D02*
X705947Y276825D01*
X705396Y279675D02*
X697505Y279675D01*
X701739Y282525D02*
X703912Y282525D01*
X695454Y234254D02*
X696597Y227349D01*
X695454Y234254D02*
X702359Y235397D01*
X703502Y228492D01*
X696597Y227349D01*
X696125Y230199D02*
X703219Y230199D01*
X702748Y233049D02*
X695653Y233049D01*
X712758Y237118D02*
X713901Y230213D01*
X712758Y237118D02*
X719663Y238261D01*
X720806Y231356D01*
X713901Y230213D01*
X713429Y233063D02*
X720523Y233063D01*
X720052Y235913D02*
X712957Y235913D01*
X696781Y194039D02*
X695710Y187122D01*
X696781Y194039D02*
X703698Y192968D01*
X702627Y186051D01*
X695710Y187122D01*
X695985Y188901D02*
X703068Y188901D01*
X703510Y191751D02*
X696427Y191751D01*
X714115Y191355D02*
X713044Y184438D01*
X714115Y191355D02*
X721032Y190284D01*
X719961Y183367D01*
X713044Y184438D01*
X713319Y186217D02*
X720402Y186217D01*
X720844Y189067D02*
X713761Y189067D01*
X685521Y155386D02*
X682354Y149145D01*
X685521Y155386D02*
X691762Y152219D01*
X688595Y145978D01*
X682354Y149145D01*
X682979Y148828D02*
X690041Y148828D01*
X691487Y151678D02*
X683639Y151678D01*
X685086Y154528D02*
X687212Y154528D01*
X701163Y147450D02*
X697996Y141209D01*
X701163Y147450D02*
X707404Y144283D01*
X704237Y138042D01*
X697996Y141209D01*
X698621Y140892D02*
X705683Y140892D01*
X707129Y143742D02*
X699281Y143742D01*
X700728Y146592D02*
X702854Y146592D01*
X662794Y122155D02*
X657845Y117206D01*
X662794Y122155D02*
X667743Y117206D01*
X662794Y112257D01*
X657845Y117206D01*
X659944Y115107D02*
X665644Y115107D01*
X666992Y117957D02*
X658596Y117957D01*
X661446Y120807D02*
X664142Y120807D01*
X675196Y109753D02*
X670247Y104804D01*
X675196Y109753D02*
X680145Y104804D01*
X675196Y99855D01*
X670247Y104804D01*
X672346Y102705D02*
X678046Y102705D01*
X679394Y105555D02*
X670998Y105555D01*
X673848Y108405D02*
X676544Y108405D01*
X459701Y145485D02*
X456340Y151624D01*
X459701Y145485D02*
X453562Y142124D01*
X450201Y148263D01*
X456340Y151624D01*
X458768Y144974D02*
X452002Y144974D01*
X450441Y147824D02*
X458420Y147824D01*
X456860Y150674D02*
X454605Y150674D01*
X440954Y143200D02*
X444315Y137061D01*
X438176Y133700D01*
X434815Y139839D01*
X440954Y143200D01*
X443382Y136550D02*
X436616Y136550D01*
X435055Y139400D02*
X443034Y139400D01*
X441474Y142250D02*
X439219Y142250D01*
X445104Y183004D02*
X443816Y189884D01*
X445104Y183004D02*
X438224Y181716D01*
X436936Y188596D01*
X443816Y189884D01*
X444812Y184566D02*
X437690Y184566D01*
X437157Y187416D02*
X444278Y187416D01*
X426576Y186658D02*
X427864Y179778D01*
X420984Y178490D01*
X419696Y185370D01*
X426576Y186658D01*
X427572Y181340D02*
X420450Y181340D01*
X419917Y184190D02*
X427038Y184190D01*
X442906Y223203D02*
X443819Y230142D01*
X442906Y223203D02*
X435967Y224116D01*
X436880Y231055D01*
X443819Y230142D01*
X443281Y226053D02*
X436222Y226053D01*
X436597Y228903D02*
X443656Y228903D01*
X426429Y232432D02*
X425516Y225493D01*
X418577Y226406D01*
X419490Y233345D01*
X426429Y232432D01*
X425891Y228343D02*
X418832Y228343D01*
X419207Y231193D02*
X426266Y231193D01*
X453307Y262073D02*
X456343Y268379D01*
X453307Y262073D02*
X447001Y265109D01*
X450037Y271415D01*
X456343Y268379D01*
X454679Y264923D02*
X447387Y264923D01*
X448284Y267773D02*
X456051Y267773D01*
X451682Y270623D02*
X449656Y270623D01*
X440539Y275985D02*
X437503Y269679D01*
X431197Y272715D01*
X434233Y279021D01*
X440539Y275985D01*
X438875Y272529D02*
X431583Y272529D01*
X432480Y275379D02*
X440247Y275379D01*
X435878Y278229D02*
X433852Y278229D01*
X475302Y295794D02*
X480147Y300845D01*
X475302Y295794D02*
X470251Y300639D01*
X475096Y305690D01*
X480147Y300845D01*
X478036Y298644D02*
X472331Y298644D01*
X471071Y301494D02*
X479470Y301494D01*
X476499Y304344D02*
X473805Y304344D01*
X467487Y312985D02*
X462642Y307934D01*
X457591Y312779D01*
X462436Y317830D01*
X467487Y312985D01*
X465376Y310784D02*
X459671Y310784D01*
X458411Y313634D02*
X466810Y313634D01*
X463839Y316484D02*
X461145Y316484D01*
X506697Y320998D02*
X512870Y324295D01*
X506697Y320998D02*
X503400Y327171D01*
X509573Y330468D01*
X512870Y324295D01*
X512033Y323848D02*
X505175Y323848D01*
X503653Y326698D02*
X511587Y326698D01*
X510064Y329548D02*
X507850Y329548D01*
X504608Y339767D02*
X498435Y336470D01*
X495138Y342643D01*
X501311Y345940D01*
X504608Y339767D01*
X503771Y339320D02*
X496913Y339320D01*
X495391Y342170D02*
X503325Y342170D01*
X501802Y345020D02*
X499588Y345020D01*
X544373Y335182D02*
X551266Y336397D01*
X544373Y335182D02*
X543158Y342075D01*
X550051Y343290D01*
X551266Y336397D01*
X550978Y338032D02*
X543871Y338032D01*
X543368Y340882D02*
X550475Y340882D01*
X548220Y353671D02*
X541327Y352456D01*
X540112Y359349D01*
X547005Y360564D01*
X548220Y353671D01*
X547932Y355306D02*
X540825Y355306D01*
X540322Y358156D02*
X547429Y358156D01*
X584593Y336941D02*
X591522Y335954D01*
X584593Y336941D02*
X585580Y343870D01*
X592509Y342883D01*
X591522Y335954D01*
X591928Y338804D02*
X584858Y338804D01*
X585264Y341654D02*
X592334Y341654D01*
X593994Y353320D02*
X587065Y354307D01*
X588052Y361236D01*
X594981Y360249D01*
X593994Y353320D01*
X594400Y356170D02*
X587330Y356170D01*
X587736Y359020D02*
X594806Y359020D01*
D13*
G36*
X493623Y133569D02*
X497731Y137942D01*
X502833Y133151D01*
X498725Y128778D01*
X493623Y133569D01*
G37*
G36*
X486777Y126279D02*
X490885Y130652D01*
X495987Y125861D01*
X491879Y121488D01*
X486777Y126279D01*
G37*
G36*
X620903Y305312D02*
X618245Y299934D01*
X611971Y303036D01*
X614629Y308414D01*
X620903Y305312D01*
G37*
G36*
X625333Y314276D02*
X622675Y308898D01*
X616401Y312000D01*
X619059Y317378D01*
X625333Y314276D01*
G37*
G36*
X648030Y284749D02*
X643832Y280462D01*
X638832Y285359D01*
X643030Y289646D01*
X648030Y284749D01*
G37*
G36*
X655026Y291893D02*
X650828Y287606D01*
X645828Y292503D01*
X650026Y296790D01*
X655026Y291893D01*
G37*
G36*
X667413Y256764D02*
X662092Y253994D01*
X658859Y260202D01*
X664180Y262972D01*
X667413Y256764D01*
G37*
G36*
X676283Y261382D02*
X670962Y258612D01*
X667729Y264820D01*
X673050Y267590D01*
X676283Y261382D01*
G37*
G36*
X677129Y224139D02*
X671210Y223160D01*
X670067Y230065D01*
X675986Y231044D01*
X677129Y224139D01*
G37*
G36*
X686995Y225773D02*
X681076Y224794D01*
X679933Y231699D01*
X685852Y232678D01*
X686995Y225773D01*
G37*
G36*
X676208Y190114D02*
X670279Y191032D01*
X671350Y197948D01*
X677279Y197030D01*
X676208Y190114D01*
G37*
G36*
X686090Y188584D02*
X680161Y189502D01*
X681232Y196418D01*
X687161Y195500D01*
X686090Y188584D01*
G37*
G36*
X664751Y158059D02*
X659402Y160774D01*
X662569Y167015D01*
X667918Y164300D01*
X664751Y158059D01*
G37*
G36*
X673669Y153535D02*
X668320Y156250D01*
X671487Y162491D01*
X676836Y159776D01*
X673669Y153535D01*
G37*
G36*
X643893Y131158D02*
X639650Y135401D01*
X644599Y140350D01*
X648842Y136107D01*
X643893Y131158D01*
G37*
G36*
X650965Y124086D02*
X646722Y128329D01*
X651671Y133278D01*
X655914Y129035D01*
X650965Y124086D01*
G37*
G36*
X473634Y161121D02*
X478896Y164002D01*
X482258Y157863D01*
X476996Y154982D01*
X473634Y161121D01*
G37*
G36*
X464862Y156319D02*
X470124Y159200D01*
X473486Y153061D01*
X468224Y150180D01*
X464862Y156319D01*
G37*
G36*
X463209Y193526D02*
X469105Y194630D01*
X470393Y187750D01*
X464497Y186646D01*
X463209Y193526D01*
G37*
G36*
X453379Y191686D02*
X459275Y192790D01*
X460563Y185910D01*
X454667Y184806D01*
X453379Y191686D01*
G37*
G36*
X463381Y227566D02*
X469329Y226783D01*
X468415Y219844D01*
X462467Y220627D01*
X463381Y227566D01*
G37*
G36*
X453467Y228872D02*
X459415Y228089D01*
X458501Y221150D01*
X452553Y221933D01*
X453467Y228872D01*
G37*
G36*
X474139Y259859D02*
X479545Y257257D01*
X476509Y250951D01*
X471103Y253553D01*
X474139Y259859D01*
G37*
G36*
X465129Y264195D02*
X470535Y261593D01*
X467499Y255287D01*
X462093Y257889D01*
X465129Y264195D01*
G37*
G36*
X494406Y287207D02*
X498736Y283054D01*
X493892Y278003D01*
X489562Y282156D01*
X494406Y287207D01*
G37*
G36*
X487188Y294129D02*
X491518Y289976D01*
X486674Y284925D01*
X482344Y289078D01*
X487188Y294129D01*
G37*
G36*
X522175Y306894D02*
X525001Y301603D01*
X518827Y298306D01*
X516001Y303597D01*
X522175Y306894D01*
G37*
G36*
X517465Y315716D02*
X520291Y310425D01*
X514117Y307128D01*
X511291Y312419D01*
X517465Y315716D01*
G37*
G36*
X554692Y316967D02*
X555734Y311059D01*
X548842Y309843D01*
X547800Y315751D01*
X554692Y316967D01*
G37*
G36*
X552956Y326815D02*
X553998Y320907D01*
X547106Y319691D01*
X546064Y325599D01*
X552956Y326815D01*
G37*
G36*
X588729Y316422D02*
X587884Y310483D01*
X580955Y311470D01*
X581800Y317409D01*
X588729Y316422D01*
G37*
G36*
X590139Y326322D02*
X589294Y320383D01*
X582365Y321370D01*
X583210Y327309D01*
X590139Y326322D01*
G37*
D14*
X570000Y135070D03*
X595400Y279850D03*
D15*
X636040Y210000D03*
X503960Y210000D03*
D14*
X544600Y279850D03*
X595400Y135070D03*
X544600Y135070D03*
D16*
X626782Y80050D02*
X632180Y80050D01*
X632180Y85050D02*
X626782Y85050D01*
X626782Y90050D02*
X632180Y90050D01*
X632180Y95050D02*
X626782Y95050D01*
X626782Y100050D02*
X632180Y100050D01*
X632180Y105050D02*
X626782Y105050D01*
X622530Y109302D02*
X622530Y114700D01*
X617530Y114700D02*
X617530Y109302D01*
X612530Y109302D02*
X612530Y114700D01*
X607530Y114700D02*
X607530Y109302D01*
X602530Y109302D02*
X602530Y114700D01*
X597530Y114700D02*
X597530Y109302D01*
X593278Y105050D02*
X587880Y105050D01*
X587880Y100050D02*
X593278Y100050D01*
X593278Y95050D02*
X587880Y95050D01*
X587880Y90050D02*
X593278Y90050D01*
X593278Y85050D02*
X587880Y85050D01*
X587880Y80050D02*
X593278Y80050D01*
X597530Y75798D02*
X597530Y70400D01*
X602530Y70400D02*
X602530Y75798D01*
X607530Y75798D02*
X607530Y70400D01*
X612530Y70400D02*
X612530Y75798D01*
X617530Y75798D02*
X617530Y70400D01*
X622530Y70400D02*
X622530Y75798D01*
D17*
X610030Y92550D03*
D13*
X567540Y75000D03*
X577540Y75000D03*
X567540Y63750D03*
X577540Y63750D03*
D10*
X557300Y243970D03*
D11*
X582700Y243970D03*
D18*
X552259Y82550D02*
X546027Y82550D01*
X546027Y87550D02*
X552259Y87550D01*
X552259Y92550D02*
X546027Y92550D01*
X546027Y97550D02*
X552259Y97550D01*
X552259Y102550D02*
X546027Y102550D01*
X540020Y108557D02*
X540020Y114789D01*
X535020Y114789D02*
X535020Y108557D01*
X530020Y108557D02*
X530020Y114789D01*
X525020Y114789D02*
X525020Y108557D01*
X520020Y108557D02*
X520020Y114789D01*
X514013Y102550D02*
X507781Y102550D01*
X507781Y97550D02*
X514013Y97550D01*
X514013Y92550D02*
X507781Y92550D01*
X507781Y87550D02*
X514013Y87550D01*
X514013Y82550D02*
X507781Y82550D01*
X520020Y76543D02*
X520020Y70311D01*
X525020Y70311D02*
X525020Y76543D01*
X530020Y76543D02*
X530020Y70311D01*
X535020Y70311D02*
X535020Y76543D01*
X540020Y76543D02*
X540020Y70311D01*
D19*
X530020Y92550D03*
D20*
X569898Y97550D03*
X569898Y87550D03*
D21*
X440000Y80000D03*
X440000Y340000D03*
X700000Y340000D03*
X700000Y80000D03*
D22*
X170020Y92550D02*
X170020Y111673D01*
X252570Y90010D02*
X252570Y86200D01*
X252570Y90010D02*
X250030Y92550D01*
X252530Y101400D02*
X252530Y112001D01*
X250030Y98900D02*
X250030Y92550D01*
X250030Y98900D02*
X252530Y101400D01*
X252530Y86160D02*
X252530Y73099D01*
X252530Y86160D02*
X252570Y86200D01*
X178910Y92550D02*
X175100Y88740D01*
X175100Y86200D01*
X170020Y92550D01*
D23*
X170020Y92550D03*
X163670Y92550D03*
X176370Y92550D03*
X250030Y92550D03*
X243680Y92550D03*
X256380Y92550D03*
X256380Y98900D03*
X250030Y98900D03*
X243680Y98900D03*
X163670Y98900D03*
X176370Y98900D03*
X170020Y98900D03*
D22*
X262530Y80050D02*
X262530Y73099D01*
X262530Y80050D02*
X252570Y90010D01*
X237530Y80050D02*
X230579Y80050D01*
X237530Y80050D02*
X250030Y92550D01*
X173830Y63340D02*
X170020Y67150D01*
X173830Y63340D02*
X185938Y63340D01*
X170020Y67150D02*
X170020Y73427D01*
X185938Y63340D02*
X203718Y81120D01*
X215740Y81120D02*
X217010Y79850D01*
X215740Y81120D02*
X203718Y81120D01*
X217010Y75530D02*
X217540Y75000D01*
X217010Y75530D02*
X217010Y79850D01*
X247490Y64610D02*
X247530Y64650D01*
X247530Y73099D01*
D23*
X247490Y64610D03*
D22*
X224400Y75000D02*
X217540Y75000D01*
X224400Y75000D02*
X224630Y74770D01*
D23*
X224630Y74770D03*
X133190Y158590D03*
X97630Y197960D03*
D22*
X108671Y197918D02*
X119205Y187384D01*
X97673Y197918D02*
X97630Y197960D01*
X97673Y197918D02*
X108671Y197918D01*
X119205Y187384D02*
X150018Y187384D01*
X222700Y207140D02*
X222700Y243970D01*
X222700Y207140D02*
X218184Y202624D01*
X165258Y202624D02*
X150018Y187384D01*
X165258Y202624D02*
X218184Y202624D01*
X209898Y87550D02*
X209898Y87300D01*
X203718Y81120D01*
X217540Y75000D02*
X217540Y63750D01*
X170020Y60800D02*
X165001Y65819D01*
X170020Y60800D02*
X186990Y60800D01*
X201190Y75000D02*
X207540Y75000D01*
X201190Y75000D02*
X186990Y60800D01*
X165007Y68367D02*
X165020Y73427D01*
X165007Y68367D02*
X165001Y65819D01*
X162996Y66356D02*
X165007Y68367D01*
X162996Y66356D02*
X152412Y66356D01*
D23*
X131082Y103142D03*
D22*
X141458Y77310D02*
X152412Y66356D01*
X141458Y77310D02*
X130001Y77310D01*
X124300Y83011D01*
X124300Y96360D02*
X131082Y103142D01*
X124300Y96360D02*
X124300Y83011D01*
X207540Y75000D02*
X212635Y69905D01*
X212635Y59461D02*
X213836Y58260D01*
X212635Y59461D02*
X212635Y69905D01*
X213836Y58260D02*
X222090Y58260D01*
X225900Y62070D01*
X234790Y62070D01*
X237530Y64810D01*
X237530Y73099D01*
X189223Y97630D02*
X189143Y97550D01*
X195003Y97630D02*
X196273Y98900D01*
X196273Y121403D01*
X194646Y123030D01*
D23*
X194646Y123030D03*
D22*
X195003Y97630D02*
X189223Y97630D01*
X312006Y263101D02*
X326403Y270595D01*
X301773Y303803D02*
X290427Y292198D01*
X260867Y313138D02*
X268034Y327700D01*
X228551Y339912D02*
X226252Y323846D01*
X190031Y323253D02*
X187212Y339236D01*
X148135Y325733D02*
X155791Y311422D01*
X126931Y289527D02*
X115199Y300742D01*
X91672Y266744D02*
X106314Y259741D01*
X291318Y128682D02*
X302794Y117206D01*
X327058Y150682D02*
X312578Y158013D01*
X323661Y192501D02*
X339704Y190045D01*
X339478Y231373D02*
X323464Y228736D01*
X95984Y225011D02*
X79893Y227129D01*
X81020Y185800D02*
X96971Y188798D01*
X109174Y154690D02*
X94951Y146874D01*
X120300Y114212D02*
X131382Y126070D01*
X279240Y109932D02*
X279240Y102710D01*
X279240Y109932D02*
X269080Y120092D01*
X269080Y138886D01*
X285590Y155396D02*
X285590Y178474D01*
X305518Y256101D02*
X303136Y258483D01*
X285590Y155396D02*
X269080Y138886D01*
X279240Y102710D02*
X276580Y100050D01*
X269481Y100050D01*
X285590Y178474D02*
X305518Y198403D01*
X305518Y256101D01*
X275430Y105250D02*
X269481Y105050D01*
X275430Y105250D02*
X276700Y106520D01*
X276700Y108879D01*
X266540Y119039D01*
X266540Y139939D01*
X283050Y156449D01*
X283050Y179526D01*
X283431Y264889D02*
X283431Y285054D01*
X302979Y199455D02*
X283050Y179526D01*
X302979Y199455D02*
X302979Y245342D01*
X283431Y264889D01*
X280510Y157501D02*
X264000Y140991D01*
X280510Y157501D02*
X280510Y180579D01*
X262500Y117938D02*
X262530Y112001D01*
X262500Y117938D02*
X264000Y119438D01*
X264000Y140991D01*
X280510Y180579D02*
X300439Y200507D01*
X300439Y244289D01*
X280891Y263837D01*
X280891Y279720D02*
X256437Y304174D01*
X280891Y279720D02*
X280891Y263837D01*
X257500Y116530D02*
X257530Y112001D01*
X257500Y116530D02*
X261460Y120490D01*
X233104Y313946D02*
X224842Y313946D01*
X233104Y313946D02*
X278351Y268699D01*
X261460Y142043D02*
X261460Y120490D01*
X261460Y142043D02*
X277970Y158553D01*
X277970Y181631D01*
X297899Y201559D02*
X297899Y243237D01*
X278351Y262785D01*
X278351Y268699D01*
X297899Y201559D02*
X277970Y181631D01*
X247519Y116709D02*
X247530Y112001D01*
X247519Y116709D02*
X258920Y128110D01*
X203072Y302100D02*
X191767Y313405D01*
X203072Y302100D02*
X241197Y302100D01*
X258920Y143095D02*
X258920Y128110D01*
X258920Y143095D02*
X275430Y159605D01*
X275430Y182683D01*
X295359Y202611D01*
X295359Y242185D01*
X275811Y261733D01*
X275811Y267486D02*
X241197Y302100D01*
X275811Y267486D02*
X275811Y261733D01*
X253840Y201372D02*
X269861Y185350D01*
X164940Y297020D02*
X145890Y277970D01*
X138784Y277970D01*
X134149Y282605D01*
X164940Y297020D02*
X239092Y297020D01*
X269861Y185350D02*
X269861Y161220D01*
X253840Y145199D01*
X237530Y114340D02*
X237530Y112001D01*
X237530Y114340D02*
X253840Y130650D01*
X253840Y145199D01*
X253840Y201372D02*
X253840Y282272D01*
X239092Y297020D01*
X238010Y119246D02*
X236304Y119246D01*
X230465Y105164D02*
X230579Y105050D01*
X230465Y105164D02*
X230465Y113407D01*
X236304Y119246D01*
X251300Y146251D02*
X266994Y161946D01*
X266994Y184625D01*
X251300Y132536D02*
X238010Y119246D01*
X251300Y132536D02*
X251300Y146251D01*
X266994Y184625D02*
X251300Y200319D01*
X251300Y281220D01*
X166210Y294480D02*
X126840Y255110D01*
X115619Y255110D01*
X115324Y255405D01*
X238040Y294480D02*
X251300Y281220D01*
X238040Y294480D02*
X166210Y294480D01*
X289400Y114140D02*
X289400Y86200D01*
X289400Y114140D02*
X279240Y124300D01*
X279240Y130747D01*
X284246Y135754D01*
X289400Y86200D02*
X283250Y80050D01*
X269481Y80050D01*
X286860Y88740D02*
X286860Y113088D01*
X276700Y123248D01*
X276700Y135730D01*
X303507Y162537D02*
X303660Y162537D01*
X303507Y162537D02*
X276700Y135730D01*
X286860Y88740D02*
X283170Y85050D01*
X269481Y85050D01*
X284320Y92550D02*
X284320Y112036D01*
X274160Y122196D01*
X274160Y136782D01*
X290670Y176370D02*
X308450Y194150D01*
X313660Y194150D01*
X313779Y194031D01*
X290670Y153292D02*
X274160Y136782D01*
X290670Y153292D02*
X290670Y176370D01*
X284320Y92550D02*
X281820Y90050D01*
X269481Y90050D01*
X281780Y98900D02*
X281780Y110984D01*
X271620Y121144D01*
X271620Y137834D01*
X288130Y154344D02*
X288130Y177422D01*
X288130Y154344D02*
X271620Y137834D01*
X281780Y98900D02*
X277930Y95050D01*
X269481Y95050D01*
X308059Y221563D02*
X313598Y227102D01*
X308059Y197351D02*
X288130Y177422D01*
X308059Y197351D02*
X308059Y221563D01*
X230579Y100050D02*
X224750Y100050D01*
X223360Y101440D01*
X223360Y109894D01*
X235252Y121786D02*
X236957Y121786D01*
X235252Y121786D02*
X223360Y109894D01*
X248760Y133589D02*
X248760Y147303D01*
X248760Y133589D02*
X236957Y121786D01*
X248760Y199267D02*
X248760Y280168D01*
X236988Y291940D01*
X105898Y230358D02*
X105898Y223705D01*
X167480Y291940D02*
X236988Y291940D01*
X167480Y291940D02*
X105898Y230358D01*
X248760Y147303D02*
X264454Y162998D01*
X264454Y183573D01*
X248760Y199267D01*
X230579Y95050D02*
X226158Y95050D01*
X220820Y100388D01*
X220820Y119220D02*
X224630Y123030D01*
X224630Y139540D01*
X233425Y148335D01*
X246200Y148335D01*
X220820Y119220D02*
X220820Y100388D01*
X246200Y148335D02*
X261914Y164050D01*
X261914Y182521D01*
X244351Y200084D01*
X166310Y200084D01*
X151070Y184844D01*
X112595Y184844D02*
X106801Y190638D01*
X112595Y184844D02*
X151070Y184844D01*
X256380Y144147D02*
X272890Y160657D01*
X163541Y299560D02*
X160501Y302600D01*
X256380Y144147D02*
X256380Y129162D01*
X272890Y160657D02*
X272890Y185914D01*
X256380Y202424D01*
X240145Y299560D02*
X163541Y299560D01*
X242530Y115530D02*
X242530Y112001D01*
X246246Y119246D02*
X246464Y119246D01*
X246246Y119246D02*
X242530Y115530D01*
X246464Y119246D02*
X256380Y129162D01*
X256380Y202424D02*
X256380Y283325D01*
X240145Y299560D01*
X230579Y90050D02*
X227130Y90050D01*
X218280Y98900D02*
X218280Y120272D01*
X218280Y98900D02*
X227130Y90050D01*
X218280Y120272D02*
X222090Y124082D01*
X222090Y140592D02*
X237305Y155807D01*
X222090Y140592D02*
X222090Y124082D01*
X117946Y159492D02*
X117946Y178906D01*
X237305Y188852D02*
X237305Y155807D01*
X121344Y182304D02*
X117946Y178906D01*
X121344Y182304D02*
X152122Y182304D01*
X166994Y197176D01*
X182264Y191194D02*
X185716Y191194D01*
X176282Y197176D02*
X166994Y197176D01*
X176282Y197176D02*
X182264Y191194D01*
X185716Y191194D02*
X189526Y195004D01*
X231153Y195004D01*
X237305Y188852D01*
X230579Y85050D02*
X227050Y85050D01*
X215740Y96360D01*
X215740Y121324D02*
X219550Y125134D01*
X215740Y121324D02*
X215740Y96360D01*
X219550Y125134D02*
X219550Y141644D01*
X234765Y156859D02*
X234765Y187800D01*
X234765Y156859D02*
X219550Y141644D01*
X138228Y133360D02*
X138228Y176328D01*
X230101Y192464D02*
X234765Y187800D01*
X141664Y179764D02*
X138228Y176328D01*
X141664Y179764D02*
X153174Y179764D01*
X187384Y188654D02*
X191194Y192464D01*
X167560Y194150D02*
X153174Y179764D01*
X167560Y194150D02*
X175716Y194150D01*
X181212Y188654D01*
X187384Y188654D01*
X191194Y192464D02*
X230101Y192464D01*
X175020Y73427D02*
X175100Y73277D01*
X175100Y68420D01*
X177640Y65880D01*
X184886Y65880D01*
X190153Y71147D01*
X204250Y85244D01*
X204250Y95712D01*
X206088Y97550D02*
X209898Y97550D01*
X206088Y97550D02*
X204250Y95712D01*
X190153Y71535D02*
X190153Y71147D01*
X190153Y71535D02*
X189070Y72618D01*
D23*
X189070Y72618D03*
X201770Y56990D03*
D22*
X242530Y66000D02*
X242530Y73099D01*
X242530Y66000D02*
X236060Y59530D01*
X150897Y82550D02*
X134307Y82550D01*
X132558Y84299D01*
D23*
X132558Y84299D03*
D22*
X201770Y56990D02*
X203040Y55720D01*
X207540Y62760D02*
X207540Y63750D01*
X207540Y62760D02*
X201770Y56990D01*
X226952Y59530D02*
X236060Y59530D01*
X226952Y59530D02*
X223142Y55720D01*
X203040Y55720D01*
D23*
X133190Y96360D03*
D22*
X257530Y73099D02*
X257530Y68496D01*
X255271Y66237D01*
D23*
X255271Y66237D03*
D22*
X160020Y73427D02*
X156210Y77237D01*
X148430Y77237D01*
D23*
X148430Y77237D03*
D22*
X127121Y83843D02*
X127121Y90291D01*
X133190Y96360D01*
X145657Y80010D02*
X148430Y77237D01*
X145657Y80010D02*
X130954Y80010D01*
X127121Y83843D01*
D23*
X160574Y171787D03*
X164940Y220820D03*
D22*
X164940Y260190D01*
X184600Y279850D01*
X160574Y171787D02*
X160020Y171233D01*
X160020Y111673D01*
X193040Y82550D02*
X198813Y88323D01*
X193040Y82550D02*
X189143Y82550D01*
X198813Y88323D02*
X198813Y125987D01*
X195420Y129380D01*
X195420Y140522D01*
X197300Y142402D02*
X197300Y179450D01*
X197300Y142402D02*
X195420Y140522D01*
D23*
X183990Y195361D03*
X154780Y175597D03*
D22*
X248100Y179450D02*
X248100Y181649D01*
X232206Y197544D01*
X187443Y197544D02*
X185260Y195361D01*
X183990Y195361D01*
X187443Y197544D02*
X232206Y197544D01*
X150897Y115337D02*
X150897Y102550D01*
X150897Y115337D02*
X157480Y121920D01*
X157480Y167817D01*
X154780Y170517D01*
X154780Y175597D01*
D23*
X142080Y98900D03*
D22*
X142080Y97630D02*
X147160Y92550D01*
X142080Y97630D02*
X142080Y98900D01*
X147160Y92550D02*
X150897Y92550D01*
X150897Y87550D02*
X145353Y87550D01*
X141521Y91382D01*
D23*
X141521Y91382D03*
D22*
X189143Y102550D02*
X189143Y130527D01*
X184600Y135070D01*
X197960Y130432D02*
X201353Y127039D01*
X222700Y164210D02*
X222700Y179450D01*
X222700Y164210D02*
X197960Y139470D01*
X201353Y127039D02*
X201353Y86200D01*
X197960Y130432D02*
X197960Y139470D01*
X201353Y86200D02*
X194478Y79325D01*
X185918Y79325D02*
X180020Y73427D01*
X185918Y79325D02*
X194478Y79325D01*
X108294Y101426D02*
X79565Y138450D01*
X63780Y182574D01*
X62503Y229419D01*
X75868Y274350D01*
X102539Y312882D01*
X139873Y341205D01*
X184166Y356510D01*
X231023Y357278D01*
X275806Y343424D01*
X314045Y316335D01*
X341961Y278695D01*
X356782Y234237D01*
X357038Y187361D01*
X342700Y142746D01*
X315196Y104804D01*
D23*
X304640Y95090D03*
D22*
X305483Y95090D01*
X315196Y104804D01*
X530020Y111673D02*
X530020Y92550D01*
X612570Y90010D02*
X612570Y86200D01*
X612570Y90010D02*
X610030Y92550D01*
X612530Y101400D02*
X612530Y112001D01*
X610030Y98900D02*
X610030Y92550D01*
X610030Y98900D02*
X612530Y101400D01*
X612530Y86160D02*
X612530Y73099D01*
X612530Y86160D02*
X612570Y86200D01*
X538910Y92550D02*
X535100Y88740D01*
X535100Y86200D01*
X530020Y92550D01*
D23*
X530020Y92550D03*
X523670Y92550D03*
X536370Y92550D03*
X610030Y92550D03*
X603680Y92550D03*
X616380Y92550D03*
X616380Y98900D03*
X610030Y98900D03*
X603680Y98900D03*
X523670Y98900D03*
X536370Y98900D03*
X530020Y98900D03*
D22*
X622530Y80050D02*
X622530Y73099D01*
X622530Y80050D02*
X612570Y90010D01*
X597530Y80050D02*
X590579Y80050D01*
X597530Y80050D02*
X610030Y92550D01*
X533830Y63340D02*
X530020Y67150D01*
X533830Y63340D02*
X545938Y63340D01*
X530020Y67150D02*
X530020Y73427D01*
X545938Y63340D02*
X563718Y81120D01*
X575740Y81120D02*
X577010Y79850D01*
X575740Y81120D02*
X563718Y81120D01*
X577010Y75530D02*
X577540Y75000D01*
X577010Y75530D02*
X577010Y79850D01*
X607490Y64610D02*
X607530Y64650D01*
X607530Y73099D01*
D23*
X607490Y64610D03*
D22*
X584400Y75000D02*
X577540Y75000D01*
X584400Y75000D02*
X584630Y74770D01*
D23*
X584630Y74770D03*
X493190Y158590D03*
X457630Y197960D03*
D22*
X468671Y197918D02*
X479205Y187384D01*
X457673Y197918D02*
X457630Y197960D01*
X457673Y197918D02*
X468671Y197918D01*
X479205Y187384D02*
X510018Y187384D01*
X582700Y207140D02*
X582700Y243970D01*
X582700Y207140D02*
X578184Y202624D01*
X525258Y202624D02*
X510018Y187384D01*
X525258Y202624D02*
X578184Y202624D01*
X569898Y87550D02*
X569898Y87300D01*
X563718Y81120D01*
X577540Y75000D02*
X577540Y63750D01*
X530020Y60800D02*
X525001Y65819D01*
X530020Y60800D02*
X546990Y60800D01*
X561190Y75000D02*
X567540Y75000D01*
X561190Y75000D02*
X546990Y60800D01*
X525007Y68367D02*
X525020Y73427D01*
X525007Y68367D02*
X525001Y65819D01*
X522996Y66356D02*
X525007Y68367D01*
X522996Y66356D02*
X512412Y66356D01*
D23*
X491082Y103142D03*
D22*
X501458Y77310D02*
X512412Y66356D01*
X501458Y77310D02*
X490001Y77310D01*
X484300Y83011D01*
X484300Y96360D02*
X491082Y103142D01*
X484300Y96360D02*
X484300Y83011D01*
X567540Y75000D02*
X572635Y69905D01*
X572635Y59461D02*
X573836Y58260D01*
X572635Y59461D02*
X572635Y69905D01*
X573836Y58260D02*
X582090Y58260D01*
X585900Y62070D01*
X594790Y62070D01*
X597530Y64810D01*
X597530Y73099D01*
X549223Y97630D02*
X549143Y97550D01*
X555003Y97630D02*
X556273Y98900D01*
X556273Y121403D01*
X554646Y123030D01*
D23*
X554646Y123030D03*
D22*
X555003Y97630D02*
X549223Y97630D01*
X672006Y263101D02*
X686403Y270595D01*
X661773Y303803D02*
X650427Y292198D01*
X620867Y313138D02*
X628034Y327700D01*
X588551Y339912D02*
X586252Y323846D01*
X550031Y323253D02*
X547212Y339236D01*
X508135Y325733D02*
X515791Y311422D01*
X486931Y289527D02*
X475199Y300742D01*
X451672Y266744D02*
X466314Y259741D01*
X651318Y128682D02*
X662794Y117206D01*
X687058Y150682D02*
X672578Y158013D01*
X683661Y192501D02*
X699704Y190045D01*
X699478Y231373D02*
X683464Y228736D01*
X455984Y225011D02*
X439893Y227129D01*
X441020Y185800D02*
X456971Y188798D01*
X469174Y154690D02*
X454951Y146874D01*
X480300Y114212D02*
X491382Y126070D01*
X639240Y109932D02*
X639240Y102710D01*
X639240Y109932D02*
X629080Y120092D01*
X629080Y138886D01*
X645590Y155396D02*
X645590Y178474D01*
X665518Y256101D02*
X663136Y258483D01*
X645590Y155396D02*
X629080Y138886D01*
X639240Y102710D02*
X636580Y100050D01*
X629481Y100050D01*
X645590Y178474D02*
X665518Y198403D01*
X665518Y256101D01*
X635430Y105250D02*
X629481Y105050D01*
X635430Y105250D02*
X636700Y106520D01*
X636700Y108879D01*
X626540Y119039D01*
X626540Y139939D01*
X643050Y156449D01*
X643050Y179526D01*
X643431Y264889D02*
X643431Y285054D01*
X662979Y199455D02*
X643050Y179526D01*
X662979Y199455D02*
X662979Y245342D01*
X643431Y264889D01*
X640510Y157501D02*
X624000Y140991D01*
X640510Y157501D02*
X640510Y180579D01*
X622500Y117938D02*
X622530Y112001D01*
X622500Y117938D02*
X624000Y119438D01*
X624000Y140991D01*
X640510Y180579D02*
X660439Y200507D01*
X660439Y244289D01*
X640891Y263837D01*
X640891Y279720D02*
X616437Y304174D01*
X640891Y279720D02*
X640891Y263837D01*
X617500Y116530D02*
X617530Y112001D01*
X617500Y116530D02*
X621460Y120490D01*
X593104Y313946D02*
X584842Y313946D01*
X593104Y313946D02*
X638351Y268699D01*
X621460Y142043D02*
X621460Y120490D01*
X621460Y142043D02*
X637970Y158553D01*
X637970Y181631D01*
X657899Y201559D02*
X657899Y243237D01*
X638351Y262785D01*
X638351Y268699D01*
X657899Y201559D02*
X637970Y181631D01*
X607519Y116709D02*
X607530Y112001D01*
X607519Y116709D02*
X618920Y128110D01*
X563072Y302100D02*
X551767Y313405D01*
X563072Y302100D02*
X601197Y302100D01*
X618920Y143095D02*
X618920Y128110D01*
X618920Y143095D02*
X635430Y159605D01*
X635430Y182683D01*
X655359Y202611D01*
X655359Y242185D01*
X635811Y261733D01*
X635811Y267486D02*
X601197Y302100D01*
X635811Y267486D02*
X635811Y261733D01*
X613840Y201372D02*
X629861Y185350D01*
X524940Y297020D02*
X505890Y277970D01*
X498784Y277970D01*
X494149Y282605D01*
X524940Y297020D02*
X599092Y297020D01*
X629861Y185350D02*
X629861Y161220D01*
X613840Y145199D01*
X597530Y114340D02*
X597530Y112001D01*
X597530Y114340D02*
X613840Y130650D01*
X613840Y145199D01*
X613840Y201372D02*
X613840Y282272D01*
X599092Y297020D01*
X598010Y119246D02*
X596304Y119246D01*
X590465Y105164D02*
X590579Y105050D01*
X590465Y105164D02*
X590465Y113407D01*
X596304Y119246D01*
X611300Y146251D02*
X626994Y161946D01*
X626994Y184625D01*
X611300Y132536D02*
X598010Y119246D01*
X611300Y132536D02*
X611300Y146251D01*
X626994Y184625D02*
X611300Y200319D01*
X611300Y281220D01*
X526210Y294480D02*
X486840Y255110D01*
X475619Y255110D01*
X475324Y255405D01*
X598040Y294480D02*
X611300Y281220D01*
X598040Y294480D02*
X526210Y294480D01*
X649400Y114140D02*
X649400Y86200D01*
X649400Y114140D02*
X639240Y124300D01*
X639240Y130747D01*
X644246Y135754D01*
X649400Y86200D02*
X643250Y80050D01*
X629481Y80050D01*
X646860Y88740D02*
X646860Y113088D01*
X636700Y123248D01*
X636700Y135730D01*
X663507Y162537D02*
X663660Y162537D01*
X663507Y162537D02*
X636700Y135730D01*
X646860Y88740D02*
X643170Y85050D01*
X629481Y85050D01*
X644320Y92550D02*
X644320Y112036D01*
X634160Y122196D01*
X634160Y136782D01*
X650670Y176370D02*
X668450Y194150D01*
X673660Y194150D01*
X673779Y194031D01*
X650670Y153292D02*
X634160Y136782D01*
X650670Y153292D02*
X650670Y176370D01*
X644320Y92550D02*
X641820Y90050D01*
X629481Y90050D01*
X641780Y98900D02*
X641780Y110984D01*
X631620Y121144D01*
X631620Y137834D01*
X648130Y154344D02*
X648130Y177422D01*
X648130Y154344D02*
X631620Y137834D01*
X641780Y98900D02*
X637930Y95050D01*
X629481Y95050D01*
X668059Y221563D02*
X673598Y227102D01*
X668059Y197351D02*
X648130Y177422D01*
X668059Y197351D02*
X668059Y221563D01*
X590579Y100050D02*
X584750Y100050D01*
X583360Y101440D01*
X583360Y109894D01*
X595252Y121786D02*
X596957Y121786D01*
X595252Y121786D02*
X583360Y109894D01*
X608760Y133589D02*
X608760Y147303D01*
X608760Y133589D02*
X596957Y121786D01*
X608760Y199267D02*
X608760Y280168D01*
X596988Y291940D01*
X465898Y230358D02*
X465898Y223705D01*
X527480Y291940D02*
X596988Y291940D01*
X527480Y291940D02*
X465898Y230358D01*
X608760Y147303D02*
X624454Y162998D01*
X624454Y183573D01*
X608760Y199267D01*
X590579Y95050D02*
X586158Y95050D01*
X580820Y100388D01*
X580820Y119220D02*
X584630Y123030D01*
X584630Y139540D01*
X593425Y148335D01*
X606200Y148335D01*
X580820Y119220D02*
X580820Y100388D01*
X606200Y148335D02*
X621914Y164050D01*
X621914Y182521D01*
X604351Y200084D01*
X526310Y200084D01*
X511070Y184844D01*
X472595Y184844D02*
X466801Y190638D01*
X472595Y184844D02*
X511070Y184844D01*
X616380Y144147D02*
X632890Y160657D01*
X523541Y299560D02*
X520501Y302600D01*
X616380Y144147D02*
X616380Y129162D01*
X632890Y160657D02*
X632890Y185914D01*
X616380Y202424D01*
X600145Y299560D02*
X523541Y299560D01*
X602530Y115530D02*
X602530Y112001D01*
X606246Y119246D02*
X606464Y119246D01*
X606246Y119246D02*
X602530Y115530D01*
X606464Y119246D02*
X616380Y129162D01*
X616380Y202424D02*
X616380Y283325D01*
X600145Y299560D01*
X590579Y90050D02*
X587130Y90050D01*
X578280Y98900D02*
X578280Y120272D01*
X578280Y98900D02*
X587130Y90050D01*
X578280Y120272D02*
X582090Y124082D01*
X582090Y140592D02*
X597305Y155807D01*
X582090Y140592D02*
X582090Y124082D01*
X477946Y159492D02*
X477946Y178906D01*
X597305Y188852D02*
X597305Y155807D01*
X481344Y182304D02*
X477946Y178906D01*
X481344Y182304D02*
X512122Y182304D01*
X526994Y197176D01*
X542264Y191194D02*
X545716Y191194D01*
X536282Y197176D02*
X526994Y197176D01*
X536282Y197176D02*
X542264Y191194D01*
X545716Y191194D02*
X549526Y195004D01*
X591153Y195004D01*
X597305Y188852D01*
X590579Y85050D02*
X587050Y85050D01*
X575740Y96360D01*
X575740Y121324D02*
X579550Y125134D01*
X575740Y121324D02*
X575740Y96360D01*
X579550Y125134D02*
X579550Y141644D01*
X594765Y156859D02*
X594765Y187800D01*
X594765Y156859D02*
X579550Y141644D01*
X498228Y133360D02*
X498228Y176328D01*
X590101Y192464D02*
X594765Y187800D01*
X501664Y179764D02*
X498228Y176328D01*
X501664Y179764D02*
X513174Y179764D01*
X547384Y188654D02*
X551194Y192464D01*
X527560Y194150D02*
X513174Y179764D01*
X527560Y194150D02*
X535716Y194150D01*
X541212Y188654D01*
X547384Y188654D01*
X551194Y192464D02*
X590101Y192464D01*
X535020Y73427D02*
X535100Y73277D01*
X535100Y68420D01*
X537640Y65880D01*
X544886Y65880D01*
X550153Y71147D01*
X564250Y85244D01*
X564250Y95712D01*
X566088Y97550D02*
X569898Y97550D01*
X566088Y97550D02*
X564250Y95712D01*
X550153Y71535D02*
X550153Y71147D01*
X550153Y71535D02*
X549070Y72618D01*
D23*
X549070Y72618D03*
X561770Y56990D03*
D22*
X602530Y66000D02*
X602530Y73099D01*
X602530Y66000D02*
X596060Y59530D01*
X510897Y82550D02*
X494307Y82550D01*
X492558Y84299D01*
D23*
X492558Y84299D03*
D22*
X561770Y56990D02*
X563040Y55720D01*
X567540Y62760D02*
X567540Y63750D01*
X567540Y62760D02*
X561770Y56990D01*
X586952Y59530D02*
X596060Y59530D01*
X586952Y59530D02*
X583142Y55720D01*
X563040Y55720D01*
D23*
X493190Y96360D03*
D22*
X617530Y73099D02*
X617530Y68496D01*
X615271Y66237D01*
D23*
X615271Y66237D03*
D22*
X520020Y73427D02*
X516210Y77237D01*
X508430Y77237D01*
D23*
X508430Y77237D03*
D22*
X487121Y83843D02*
X487121Y90291D01*
X493190Y96360D01*
X505657Y80010D02*
X508430Y77237D01*
X505657Y80010D02*
X490954Y80010D01*
X487121Y83843D01*
D23*
X520574Y171787D03*
X524940Y220820D03*
D22*
X524940Y260190D01*
X544600Y279850D01*
X520574Y171787D02*
X520020Y171233D01*
X520020Y111673D01*
X553040Y82550D02*
X558813Y88323D01*
X553040Y82550D02*
X549143Y82550D01*
X558813Y88323D02*
X558813Y125987D01*
X555420Y129380D01*
X555420Y140522D01*
X557300Y142402D02*
X557300Y179450D01*
X557300Y142402D02*
X555420Y140522D01*
D23*
X543990Y195361D03*
X514780Y175597D03*
D22*
X608100Y179450D02*
X608100Y181649D01*
X592206Y197544D01*
X547443Y197544D02*
X545260Y195361D01*
X543990Y195361D01*
X547443Y197544D02*
X592206Y197544D01*
X510897Y115337D02*
X510897Y102550D01*
X510897Y115337D02*
X517480Y121920D01*
X517480Y167817D01*
X514780Y170517D01*
X514780Y175597D01*
D23*
X502080Y98900D03*
D22*
X502080Y97630D02*
X507160Y92550D01*
X502080Y97630D02*
X502080Y98900D01*
X507160Y92550D02*
X510897Y92550D01*
X510897Y87550D02*
X505353Y87550D01*
X501521Y91382D01*
D23*
X501521Y91382D03*
D22*
X549143Y102550D02*
X549143Y130527D01*
X544600Y135070D01*
X557960Y130432D02*
X561353Y127039D01*
X582700Y164210D02*
X582700Y179450D01*
X582700Y164210D02*
X557960Y139470D01*
X561353Y127039D02*
X561353Y86200D01*
X557960Y130432D02*
X557960Y139470D01*
X561353Y86200D02*
X554478Y79325D01*
X545918Y79325D02*
X540020Y73427D01*
X545918Y79325D02*
X554478Y79325D01*
X468294Y101426D02*
X439565Y138450D01*
X423780Y182574D01*
X422503Y229419D01*
X435868Y274350D01*
X462539Y312882D01*
X499873Y341205D01*
X544166Y356510D01*
X591023Y357278D01*
X635806Y343424D01*
X674045Y316335D01*
X701961Y278695D01*
X716782Y234237D01*
X717038Y187361D01*
X702700Y142746D01*
X675196Y104804D01*
D23*
X664640Y95090D03*
D22*
X665483Y95090D01*
X675196Y104804D01*
M02*
