G04 EAGLE Gerber RS-274X export*
G75*
%MOMM*%
%FSLAX34Y34*%
%LPD*%
%INSoldermask Top*%
%IPPOS*%
%AMOC8*
5,1,8,0,0,1.08239X$1,22.5*%
G01*
%ADD10C,0.503200*%
%ADD11C,6.203200*%
%ADD12C,2.203200*%
%ADD13C,2.540000*%
%ADD14P,2.144431X8X22.500000*%
%ADD15C,1.981200*%
%ADD16C,0.505344*%
%ADD17R,0.803200X0.903200*%
%ADD18C,1.727200*%
%ADD19C,3.505200*%
%ADD20C,0.473200*%
%ADD21R,2.903200X2.903200*%
%ADD22C,0.467200*%
%ADD23R,2.803200X2.803200*%
%ADD24R,0.903200X0.803200*%
%ADD25C,3.845200*%


D10*
X92500Y387500D03*
X97500Y387500D03*
X92500Y362500D03*
X97500Y362500D03*
X322500Y362500D03*
X327500Y362500D03*
X327500Y387500D03*
X322500Y387500D03*
X362500Y322500D03*
X362500Y332500D03*
X362500Y92500D03*
X362500Y97500D03*
X327500Y57500D03*
X322500Y57500D03*
X97500Y56250D03*
X92500Y56250D03*
X57500Y92500D03*
X57500Y97500D03*
X57500Y322500D03*
X57500Y327500D03*
X57500Y422500D03*
X57500Y427500D03*
X362500Y422500D03*
X362500Y427500D03*
X362500Y652500D03*
X362500Y657500D03*
X327500Y692500D03*
X322500Y692500D03*
X92500Y692500D03*
X97500Y692500D03*
X57500Y657500D03*
X57500Y652500D03*
D11*
X210000Y540000D03*
D12*
X80000Y670000D03*
X340000Y670000D03*
X340000Y410000D03*
X80000Y410000D03*
D13*
X110000Y440000D02*
X107589Y442471D01*
X105238Y445001D01*
X102950Y447587D01*
X100726Y450228D01*
X98567Y452922D01*
X96474Y455669D01*
X94449Y458466D01*
X92493Y461311D01*
X90607Y464203D01*
X88792Y467141D01*
X87049Y470122D01*
X85380Y473144D01*
X83785Y476207D01*
X82265Y479307D01*
X80821Y482444D01*
X79454Y485615D01*
X78166Y488818D01*
X76955Y492052D01*
X75824Y495314D01*
X74773Y498604D01*
X73803Y501917D01*
X72914Y505254D01*
X72106Y508611D01*
X71381Y511987D01*
X70739Y515380D01*
X70179Y518787D01*
X69703Y522207D01*
X69310Y525637D01*
X69002Y529076D01*
X68777Y532522D01*
X68636Y535972D01*
X68580Y539425D01*
X68608Y542877D01*
X68721Y546328D01*
X68917Y549776D01*
X69198Y553217D01*
X69563Y556651D01*
X70011Y560075D01*
X70543Y563486D01*
X71158Y566884D01*
X71856Y570266D01*
X72636Y573629D01*
X73498Y576973D01*
X74441Y580294D01*
X75465Y583592D01*
X76569Y586864D01*
X77753Y590107D01*
X79016Y593321D01*
X80357Y596503D01*
X81775Y599651D01*
X83270Y602764D01*
X84840Y605839D01*
X86484Y608875D01*
X88203Y611870D01*
X89994Y614822D01*
X91856Y617730D01*
X93789Y620591D01*
X95791Y623404D01*
X97862Y626168D01*
X99999Y628880D01*
X102201Y631539D01*
X104468Y634143D01*
X106798Y636692D01*
X109190Y639183D01*
X111641Y641614D01*
X114151Y643985D01*
X116719Y646294D01*
X119341Y648540D01*
X122018Y650721D01*
X124748Y652836D01*
X127528Y654884D01*
X130357Y656863D01*
X133234Y658773D01*
X136157Y660611D01*
X139123Y662378D01*
X142132Y664072D01*
X145182Y665692D01*
X148270Y667237D01*
X151394Y668706D01*
X154554Y670099D01*
X157747Y671414D01*
X160971Y672650D01*
X164224Y673808D01*
X167504Y674885D01*
X170810Y675883D01*
X174139Y676799D01*
X177490Y677634D01*
X180860Y678386D01*
X184247Y679056D01*
X187650Y679644D01*
X191065Y680148D01*
X194493Y680568D01*
X197929Y680905D01*
X201373Y681158D01*
X204822Y681326D01*
X208274Y681410D01*
X211726Y681410D01*
X215178Y681326D01*
X218627Y681158D01*
X222071Y680905D01*
X225507Y680568D01*
X228935Y680148D01*
X232350Y679644D01*
X235753Y679056D01*
X239140Y678386D01*
X242510Y677634D01*
X245861Y676799D01*
X249190Y675883D01*
X252496Y674885D01*
X255776Y673808D01*
X259029Y672650D01*
X262253Y671414D01*
X265446Y670099D01*
X268606Y668706D01*
X271730Y667237D01*
X274818Y665692D01*
X277868Y664072D01*
X280877Y662378D01*
X283843Y660611D01*
X286766Y658773D01*
X289643Y656863D01*
X292472Y654884D01*
X295252Y652836D01*
X297982Y650721D01*
X300659Y648540D01*
X303281Y646294D01*
X305849Y643985D01*
X308359Y641614D01*
X310810Y639183D01*
X313202Y636692D01*
X315532Y634143D01*
X317799Y631539D01*
X320001Y628880D01*
X322138Y626168D01*
X324209Y623404D01*
X326211Y620591D01*
X328144Y617730D01*
X330006Y614822D01*
X331797Y611870D01*
X333516Y608875D01*
X335160Y605839D01*
X336730Y602764D01*
X338225Y599651D01*
X339643Y596503D01*
X340984Y593321D01*
X342247Y590107D01*
X343431Y586864D01*
X344535Y583592D01*
X345559Y580294D01*
X346502Y576973D01*
X347364Y573629D01*
X348144Y570266D01*
X348842Y566884D01*
X349457Y563486D01*
X349989Y560075D01*
X350437Y556651D01*
X350802Y553217D01*
X351083Y549776D01*
X351279Y546328D01*
X351392Y542877D01*
X351420Y539425D01*
X351364Y535972D01*
X351223Y532522D01*
X350998Y529076D01*
X350690Y525637D01*
X350297Y522207D01*
X349821Y518787D01*
X349261Y515380D01*
X348619Y511987D01*
X347894Y508611D01*
X347086Y505254D01*
X346197Y501917D01*
X345227Y498604D01*
X344176Y495314D01*
X343045Y492052D01*
X341834Y488818D01*
X340546Y485615D01*
X339179Y482444D01*
X337735Y479307D01*
X336215Y476207D01*
X334620Y473144D01*
X332951Y470122D01*
X331208Y467141D01*
X329393Y464203D01*
X327507Y461311D01*
X325551Y458466D01*
X323526Y455669D01*
X321433Y452922D01*
X319274Y450228D01*
X317050Y447587D01*
X314762Y445001D01*
X312411Y442471D01*
X310000Y440000D01*
D10*
X57500Y332500D03*
X57500Y337500D03*
X87500Y362500D03*
X82500Y362500D03*
X87500Y387500D03*
X82500Y387500D03*
X57500Y417500D03*
X57500Y412500D03*
X57500Y662500D03*
X57500Y667500D03*
X87500Y692500D03*
X82500Y692500D03*
X332500Y692500D03*
X337500Y692500D03*
X362500Y662500D03*
X362500Y667500D03*
X362500Y417500D03*
X362500Y412500D03*
X362500Y327500D03*
X362500Y337500D03*
X362500Y87500D03*
X362500Y82500D03*
X332500Y57500D03*
X337500Y57500D03*
X87500Y56250D03*
X82500Y56250D03*
X57500Y87500D03*
X57500Y82500D03*
X332500Y362500D03*
X337500Y362500D03*
X332500Y387500D03*
X337500Y387500D03*
X452500Y387500D03*
X457500Y387500D03*
X452500Y362500D03*
X457500Y362500D03*
X682500Y362500D03*
X687500Y362500D03*
X687500Y387500D03*
X682500Y387500D03*
X722500Y322500D03*
X722500Y332500D03*
X722500Y92500D03*
X722500Y97500D03*
X687500Y57500D03*
X682500Y57500D03*
X457500Y56250D03*
X452500Y56250D03*
X417500Y92500D03*
X417500Y97500D03*
X417500Y322500D03*
X417500Y327500D03*
X417500Y422500D03*
X417500Y427500D03*
X722500Y422500D03*
X722500Y427500D03*
X722500Y652500D03*
X722500Y657500D03*
X687500Y692500D03*
X682500Y692500D03*
X452500Y692500D03*
X457500Y692500D03*
X417500Y657500D03*
X417500Y652500D03*
D11*
X570000Y540000D03*
D12*
X440000Y670000D03*
X700000Y670000D03*
X700000Y410000D03*
X440000Y410000D03*
D13*
X470000Y440000D02*
X467589Y442471D01*
X465238Y445001D01*
X462950Y447587D01*
X460726Y450228D01*
X458567Y452922D01*
X456474Y455669D01*
X454449Y458466D01*
X452493Y461311D01*
X450607Y464203D01*
X448792Y467141D01*
X447049Y470122D01*
X445380Y473144D01*
X443785Y476207D01*
X442265Y479307D01*
X440821Y482444D01*
X439454Y485615D01*
X438166Y488818D01*
X436955Y492052D01*
X435824Y495314D01*
X434773Y498604D01*
X433803Y501917D01*
X432914Y505254D01*
X432106Y508611D01*
X431381Y511987D01*
X430739Y515380D01*
X430179Y518787D01*
X429703Y522207D01*
X429310Y525637D01*
X429002Y529076D01*
X428777Y532522D01*
X428636Y535972D01*
X428580Y539425D01*
X428608Y542877D01*
X428721Y546328D01*
X428917Y549776D01*
X429198Y553217D01*
X429563Y556651D01*
X430011Y560075D01*
X430543Y563486D01*
X431158Y566884D01*
X431856Y570266D01*
X432636Y573629D01*
X433498Y576973D01*
X434441Y580294D01*
X435465Y583592D01*
X436569Y586864D01*
X437753Y590107D01*
X439016Y593321D01*
X440357Y596503D01*
X441775Y599651D01*
X443270Y602764D01*
X444840Y605839D01*
X446484Y608875D01*
X448203Y611870D01*
X449994Y614822D01*
X451856Y617730D01*
X453789Y620591D01*
X455791Y623404D01*
X457862Y626168D01*
X459999Y628880D01*
X462201Y631539D01*
X464468Y634143D01*
X466798Y636692D01*
X469190Y639183D01*
X471641Y641614D01*
X474151Y643985D01*
X476719Y646294D01*
X479341Y648540D01*
X482018Y650721D01*
X484748Y652836D01*
X487528Y654884D01*
X490357Y656863D01*
X493234Y658773D01*
X496157Y660611D01*
X499123Y662378D01*
X502132Y664072D01*
X505182Y665692D01*
X508270Y667237D01*
X511394Y668706D01*
X514554Y670099D01*
X517747Y671414D01*
X520971Y672650D01*
X524224Y673808D01*
X527504Y674885D01*
X530810Y675883D01*
X534139Y676799D01*
X537490Y677634D01*
X540860Y678386D01*
X544247Y679056D01*
X547650Y679644D01*
X551065Y680148D01*
X554493Y680568D01*
X557929Y680905D01*
X561373Y681158D01*
X564822Y681326D01*
X568274Y681410D01*
X571726Y681410D01*
X575178Y681326D01*
X578627Y681158D01*
X582071Y680905D01*
X585507Y680568D01*
X588935Y680148D01*
X592350Y679644D01*
X595753Y679056D01*
X599140Y678386D01*
X602510Y677634D01*
X605861Y676799D01*
X609190Y675883D01*
X612496Y674885D01*
X615776Y673808D01*
X619029Y672650D01*
X622253Y671414D01*
X625446Y670099D01*
X628606Y668706D01*
X631730Y667237D01*
X634818Y665692D01*
X637868Y664072D01*
X640877Y662378D01*
X643843Y660611D01*
X646766Y658773D01*
X649643Y656863D01*
X652472Y654884D01*
X655252Y652836D01*
X657982Y650721D01*
X660659Y648540D01*
X663281Y646294D01*
X665849Y643985D01*
X668359Y641614D01*
X670810Y639183D01*
X673202Y636692D01*
X675532Y634143D01*
X677799Y631539D01*
X680001Y628880D01*
X682138Y626168D01*
X684209Y623404D01*
X686211Y620591D01*
X688144Y617730D01*
X690006Y614822D01*
X691797Y611870D01*
X693516Y608875D01*
X695160Y605839D01*
X696730Y602764D01*
X698225Y599651D01*
X699643Y596503D01*
X700984Y593321D01*
X702247Y590107D01*
X703431Y586864D01*
X704535Y583592D01*
X705559Y580294D01*
X706502Y576973D01*
X707364Y573629D01*
X708144Y570266D01*
X708842Y566884D01*
X709457Y563486D01*
X709989Y560075D01*
X710437Y556651D01*
X710802Y553217D01*
X711083Y549776D01*
X711279Y546328D01*
X711392Y542877D01*
X711420Y539425D01*
X711364Y535972D01*
X711223Y532522D01*
X710998Y529076D01*
X710690Y525637D01*
X710297Y522207D01*
X709821Y518787D01*
X709261Y515380D01*
X708619Y511987D01*
X707894Y508611D01*
X707086Y505254D01*
X706197Y501917D01*
X705227Y498604D01*
X704176Y495314D01*
X703045Y492052D01*
X701834Y488818D01*
X700546Y485615D01*
X699179Y482444D01*
X697735Y479307D01*
X696215Y476207D01*
X694620Y473144D01*
X692951Y470122D01*
X691208Y467141D01*
X689393Y464203D01*
X687507Y461311D01*
X685551Y458466D01*
X683526Y455669D01*
X681433Y452922D01*
X679274Y450228D01*
X677050Y447587D01*
X674762Y445001D01*
X672411Y442471D01*
X670000Y440000D01*
D10*
X417500Y332500D03*
X417500Y337500D03*
X447500Y362500D03*
X442500Y362500D03*
X447500Y387500D03*
X442500Y387500D03*
X417500Y417500D03*
X417500Y412500D03*
X417500Y662500D03*
X417500Y667500D03*
X447500Y692500D03*
X442500Y692500D03*
X692500Y692500D03*
X697500Y692500D03*
X722500Y662500D03*
X722500Y667500D03*
X722500Y417500D03*
X722500Y412500D03*
X722500Y327500D03*
X722500Y337500D03*
X722500Y87500D03*
X722500Y82500D03*
X692500Y57500D03*
X697500Y57500D03*
X447500Y56250D03*
X442500Y56250D03*
X417500Y87500D03*
X417500Y82500D03*
X692500Y362500D03*
X697500Y362500D03*
X692500Y387500D03*
X697500Y387500D03*
D14*
X171900Y179450D03*
D15*
X197300Y179450D03*
X222700Y179450D03*
X248100Y179450D03*
D16*
X125233Y114367D02*
X120145Y119145D01*
X125233Y114367D02*
X120455Y109279D01*
X115367Y114057D01*
X120145Y119145D01*
X115388Y114079D02*
X124963Y114079D01*
X120428Y118879D02*
X119895Y118879D01*
X108139Y106359D02*
X113227Y101581D01*
X108449Y96493D01*
X103361Y101271D01*
X108139Y106359D01*
X103382Y101293D02*
X112957Y101293D01*
X108422Y106093D02*
X107889Y106093D01*
X263359Y326118D02*
X269616Y323025D01*
X263359Y326118D02*
X266452Y332375D01*
X272709Y329282D01*
X269616Y323025D01*
X271989Y327825D02*
X264203Y327825D01*
X271131Y341842D02*
X277388Y338749D01*
X271131Y341842D02*
X274224Y348099D01*
X280481Y345006D01*
X277388Y338749D01*
X279761Y343549D02*
X271975Y343549D01*
X296838Y303752D02*
X301824Y298868D01*
X296838Y303752D02*
X301722Y308738D01*
X306708Y303854D01*
X301824Y298868D01*
X306526Y303668D02*
X296924Y303668D01*
X301458Y308468D02*
X301998Y308468D01*
X309110Y316284D02*
X314096Y311400D01*
X309110Y316284D02*
X313994Y321270D01*
X318980Y316386D01*
X314096Y311400D01*
X318798Y316200D02*
X309196Y316200D01*
X313730Y321000D02*
X314270Y321000D01*
X321696Y272079D02*
X324919Y265888D01*
X321696Y272079D02*
X327887Y275302D01*
X331110Y269111D01*
X324919Y265888D01*
X322420Y270688D02*
X330289Y270688D01*
X340477Y273988D02*
X337254Y280179D01*
X343445Y283402D01*
X346668Y277211D01*
X340477Y273988D01*
X337978Y278788D02*
X345847Y278788D01*
X335465Y234246D02*
X336605Y227360D01*
X335465Y234246D02*
X342351Y235386D01*
X343491Y228500D01*
X336605Y227360D01*
X335810Y232160D02*
X342885Y232160D01*
X352769Y237110D02*
X353909Y230224D01*
X352769Y237110D02*
X359655Y238250D01*
X360795Y231364D01*
X353909Y230224D01*
X353114Y235024D02*
X360189Y235024D01*
X336790Y194027D02*
X335722Y187131D01*
X336790Y194027D02*
X343686Y192959D01*
X342618Y186063D01*
X335722Y187131D01*
X336300Y190863D02*
X343361Y190863D01*
X354124Y191343D02*
X353056Y184447D01*
X354124Y191343D02*
X361020Y190275D01*
X359952Y183379D01*
X353056Y184447D01*
X353634Y188179D02*
X360695Y188179D01*
X325525Y155373D02*
X322367Y149149D01*
X325525Y155373D02*
X331749Y152215D01*
X328591Y145991D01*
X322367Y149149D01*
X323200Y150791D02*
X331026Y150791D01*
X341167Y147437D02*
X338009Y141213D01*
X341167Y147437D02*
X347391Y144279D01*
X344233Y138055D01*
X338009Y141213D01*
X338842Y142855D02*
X346668Y142855D01*
X302794Y122141D02*
X297859Y117206D01*
X302794Y122141D02*
X307729Y117206D01*
X302794Y112271D01*
X297859Y117206D01*
X297994Y117071D02*
X307594Y117071D01*
X303064Y121871D02*
X302524Y121871D01*
X315196Y109739D02*
X310261Y104804D01*
X315196Y109739D02*
X320131Y104804D01*
X315196Y99869D01*
X310261Y104804D01*
X310396Y104669D02*
X319996Y104669D01*
X315466Y109469D02*
X314926Y109469D01*
X99688Y145489D02*
X96336Y151611D01*
X99688Y145489D02*
X93566Y142137D01*
X90214Y148259D01*
X96336Y151611D01*
X98895Y146937D02*
X90938Y146937D01*
X80950Y143187D02*
X84302Y137065D01*
X78180Y133713D01*
X74828Y139835D01*
X80950Y143187D01*
X83509Y138513D02*
X75552Y138513D01*
X85092Y183012D02*
X83808Y189872D01*
X85092Y183012D02*
X78232Y181728D01*
X76948Y188588D01*
X83808Y189872D01*
X84434Y186528D02*
X77334Y186528D01*
X66568Y186646D02*
X67852Y179786D01*
X60992Y178502D01*
X59708Y185362D01*
X66568Y186646D01*
X67194Y183302D02*
X60094Y183302D01*
X82897Y223214D02*
X83808Y230133D01*
X82897Y223214D02*
X75978Y224125D01*
X76889Y231044D01*
X83808Y230133D01*
X83529Y228014D02*
X76490Y228014D01*
X66418Y232423D02*
X65507Y225504D01*
X58588Y226415D01*
X59499Y233334D01*
X66418Y232423D01*
X66139Y230304D02*
X59100Y230304D01*
X93303Y262086D02*
X96330Y268375D01*
X93303Y262086D02*
X87014Y265113D01*
X90041Y271402D01*
X96330Y268375D01*
X95613Y266886D02*
X87867Y266886D01*
X77499Y269692D02*
X80526Y275981D01*
X77499Y269692D02*
X71210Y272719D01*
X74237Y279008D01*
X80526Y275981D01*
X79809Y274492D02*
X72063Y274492D01*
X115302Y295808D02*
X120133Y300845D01*
X115302Y295808D02*
X110265Y300639D01*
X115096Y305676D01*
X120133Y300845D01*
X119906Y300608D02*
X110297Y300608D01*
X114839Y305408D02*
X115375Y305408D01*
X107473Y312985D02*
X102642Y307948D01*
X97605Y312779D01*
X102436Y317816D01*
X107473Y312985D01*
X107246Y312748D02*
X97637Y312748D01*
X102179Y317548D02*
X102715Y317548D01*
X146701Y321011D02*
X152857Y324299D01*
X146701Y321011D02*
X143413Y327167D01*
X149569Y330455D01*
X152857Y324299D01*
X152049Y325811D02*
X144137Y325811D01*
X138439Y336483D02*
X144595Y339771D01*
X138439Y336483D02*
X135151Y342639D01*
X141307Y345927D01*
X144595Y339771D01*
X143787Y341283D02*
X135875Y341283D01*
X184382Y335193D02*
X191255Y336406D01*
X184382Y335193D02*
X183169Y342066D01*
X190042Y343279D01*
X191255Y336406D01*
X190622Y339993D02*
X183535Y339993D01*
X181336Y352467D02*
X188209Y353680D01*
X181336Y352467D02*
X180123Y359340D01*
X186996Y360553D01*
X188209Y353680D01*
X187576Y357267D02*
X180489Y357267D01*
X224605Y336949D02*
X231514Y335966D01*
X224605Y336949D02*
X225588Y343858D01*
X232497Y342875D01*
X231514Y335966D01*
X232197Y340766D02*
X225148Y340766D01*
X227077Y354315D02*
X233986Y353332D01*
X227077Y354315D02*
X228060Y361224D01*
X234969Y360241D01*
X233986Y353332D01*
X234669Y358132D02*
X227620Y358132D01*
D17*
G36*
X132187Y133523D02*
X137686Y139378D01*
X144269Y133197D01*
X138770Y127342D01*
X132187Y133523D01*
G37*
G36*
X125341Y126233D02*
X130840Y132088D01*
X137423Y125907D01*
X131924Y120052D01*
X125341Y126233D01*
G37*
G36*
X262264Y305773D02*
X258706Y298573D01*
X250610Y302575D01*
X254168Y309775D01*
X262264Y305773D01*
G37*
G36*
X266694Y314737D02*
X263136Y307537D01*
X255040Y311539D01*
X258598Y318739D01*
X266694Y314737D01*
G37*
G36*
X289467Y284764D02*
X283847Y279025D01*
X277395Y285344D01*
X283015Y291083D01*
X289467Y284764D01*
G37*
G36*
X296463Y291908D02*
X290843Y286169D01*
X284391Y292488D01*
X290011Y298227D01*
X296463Y291908D01*
G37*
G36*
X308783Y256332D02*
X301660Y252623D01*
X297489Y260634D01*
X304612Y264343D01*
X308783Y256332D01*
G37*
G36*
X317653Y260950D02*
X310530Y257241D01*
X306359Y265252D01*
X313482Y268961D01*
X317653Y260950D01*
G37*
G36*
X318297Y223303D02*
X310374Y221991D01*
X308899Y230901D01*
X316822Y232213D01*
X318297Y223303D01*
G37*
G36*
X328163Y224937D02*
X320240Y223625D01*
X318765Y232535D01*
X326688Y233847D01*
X328163Y224937D01*
G37*
G36*
X317056Y188954D02*
X309120Y190183D01*
X310502Y199108D01*
X318438Y197879D01*
X317056Y188954D01*
G37*
G36*
X326938Y187424D02*
X319002Y188653D01*
X320384Y197578D01*
X328320Y196349D01*
X326938Y187424D01*
G37*
G36*
X305198Y156693D02*
X298036Y160327D01*
X302122Y168381D01*
X309284Y164747D01*
X305198Y156693D01*
G37*
G36*
X314116Y152169D02*
X306954Y155803D01*
X311040Y163857D01*
X318202Y160223D01*
X314116Y152169D01*
G37*
G36*
X283893Y129721D02*
X278213Y135401D01*
X284599Y141787D01*
X290279Y136107D01*
X283893Y129721D01*
G37*
G36*
X290965Y122649D02*
X285285Y128329D01*
X291671Y134715D01*
X297351Y129035D01*
X290965Y122649D01*
G37*
G36*
X112255Y161524D02*
X119299Y165381D01*
X123637Y157460D01*
X116593Y153603D01*
X112255Y161524D01*
G37*
G36*
X103483Y156722D02*
X110527Y160579D01*
X114865Y152658D01*
X107821Y148801D01*
X103483Y156722D01*
G37*
G36*
X102023Y194338D02*
X109917Y195815D01*
X111579Y186938D01*
X103685Y185461D01*
X102023Y194338D01*
G37*
G36*
X92193Y192498D02*
X100087Y193975D01*
X101749Y185098D01*
X93855Y183621D01*
X92193Y192498D01*
G37*
G36*
X102506Y228706D02*
X110469Y227658D01*
X109290Y218704D01*
X101327Y219752D01*
X102506Y228706D01*
G37*
G36*
X92592Y230012D02*
X100555Y228964D01*
X99376Y220010D01*
X91413Y221058D01*
X92592Y230012D01*
G37*
G36*
X113664Y261215D02*
X120901Y257732D01*
X116984Y249595D01*
X109747Y253078D01*
X113664Y261215D01*
G37*
G36*
X104654Y265551D02*
X111891Y262068D01*
X107974Y253931D01*
X100737Y257414D01*
X104654Y265551D01*
G37*
G36*
X134376Y288644D02*
X140173Y283084D01*
X133922Y276566D01*
X128125Y282126D01*
X134376Y288644D01*
G37*
G36*
X127158Y295566D02*
X132955Y290006D01*
X126704Y283488D01*
X120907Y289048D01*
X127158Y295566D01*
G37*
G36*
X162593Y308269D02*
X166376Y301185D01*
X158409Y296931D01*
X154626Y304015D01*
X162593Y308269D01*
G37*
G36*
X157883Y317091D02*
X161666Y310007D01*
X153699Y305753D01*
X149916Y312837D01*
X157883Y317091D01*
G37*
G36*
X195517Y318144D02*
X196911Y310235D01*
X188017Y308666D01*
X186623Y316575D01*
X195517Y318144D01*
G37*
G36*
X193781Y327992D02*
X195175Y320083D01*
X186281Y318514D01*
X184887Y326423D01*
X193781Y327992D01*
G37*
G36*
X229878Y317285D02*
X228747Y309334D01*
X219806Y310607D01*
X220937Y318558D01*
X229878Y317285D01*
G37*
G36*
X231288Y327185D02*
X230157Y319234D01*
X221216Y320507D01*
X222347Y328458D01*
X231288Y327185D01*
G37*
D18*
X210000Y135070D03*
X235400Y279850D03*
D19*
X276040Y210000D03*
X143960Y210000D03*
D18*
X184600Y279850D03*
X235400Y135070D03*
X184600Y135070D03*
D20*
X266782Y80050D02*
X272180Y80050D01*
X272180Y85050D02*
X266782Y85050D01*
X266782Y90050D02*
X272180Y90050D01*
X272180Y95050D02*
X266782Y95050D01*
X266782Y100050D02*
X272180Y100050D01*
X272180Y105050D02*
X266782Y105050D01*
X262530Y109302D02*
X262530Y114700D01*
X257530Y114700D02*
X257530Y109302D01*
X252530Y109302D02*
X252530Y114700D01*
X247530Y114700D02*
X247530Y109302D01*
X242530Y109302D02*
X242530Y114700D01*
X237530Y114700D02*
X237530Y109302D01*
X233278Y105050D02*
X227880Y105050D01*
X227880Y100050D02*
X233278Y100050D01*
X233278Y95050D02*
X227880Y95050D01*
X227880Y90050D02*
X233278Y90050D01*
X233278Y85050D02*
X227880Y85050D01*
X227880Y80050D02*
X233278Y80050D01*
X237530Y75798D02*
X237530Y70400D01*
X242530Y70400D02*
X242530Y75798D01*
X247530Y75798D02*
X247530Y70400D01*
X252530Y70400D02*
X252530Y75798D01*
X257530Y75798D02*
X257530Y70400D01*
X262530Y70400D02*
X262530Y75798D01*
D21*
X250030Y92550D03*
D17*
X207540Y75000D03*
X217540Y75000D03*
X207540Y63750D03*
X217540Y63750D03*
D14*
X197300Y243970D03*
D15*
X222700Y243970D03*
D22*
X192259Y82550D02*
X186027Y82550D01*
X186027Y87550D02*
X192259Y87550D01*
X192259Y92550D02*
X186027Y92550D01*
X186027Y97550D02*
X192259Y97550D01*
X192259Y102550D02*
X186027Y102550D01*
X180020Y108557D02*
X180020Y114789D01*
X175020Y114789D02*
X175020Y108557D01*
X170020Y108557D02*
X170020Y114789D01*
X165020Y114789D02*
X165020Y108557D01*
X160020Y108557D02*
X160020Y114789D01*
X154013Y102550D02*
X147781Y102550D01*
X147781Y97550D02*
X154013Y97550D01*
X154013Y92550D02*
X147781Y92550D01*
X147781Y87550D02*
X154013Y87550D01*
X154013Y82550D02*
X147781Y82550D01*
X160020Y76543D02*
X160020Y70311D01*
X165020Y70311D02*
X165020Y76543D01*
X170020Y76543D02*
X170020Y70311D01*
X175020Y70311D02*
X175020Y76543D01*
X180020Y76543D02*
X180020Y70311D01*
D23*
X170020Y92550D03*
D24*
X209898Y97550D03*
X209898Y87550D03*
D25*
X80000Y80000D03*
X80000Y340000D03*
X340000Y340000D03*
X340000Y80000D03*
D14*
X531900Y179450D03*
D15*
X557300Y179450D03*
X582700Y179450D03*
X608100Y179450D03*
D16*
X485233Y114367D02*
X480145Y119145D01*
X485233Y114367D02*
X480455Y109279D01*
X475367Y114057D01*
X480145Y119145D01*
X475388Y114079D02*
X484963Y114079D01*
X480428Y118879D02*
X479895Y118879D01*
X468139Y106359D02*
X473227Y101581D01*
X468449Y96493D01*
X463361Y101271D01*
X468139Y106359D01*
X463382Y101293D02*
X472957Y101293D01*
X468422Y106093D02*
X467889Y106093D01*
X623359Y326118D02*
X629616Y323025D01*
X623359Y326118D02*
X626452Y332375D01*
X632709Y329282D01*
X629616Y323025D01*
X631989Y327825D02*
X624203Y327825D01*
X631131Y341842D02*
X637388Y338749D01*
X631131Y341842D02*
X634224Y348099D01*
X640481Y345006D01*
X637388Y338749D01*
X639761Y343549D02*
X631975Y343549D01*
X656838Y303752D02*
X661824Y298868D01*
X656838Y303752D02*
X661722Y308738D01*
X666708Y303854D01*
X661824Y298868D01*
X666526Y303668D02*
X656924Y303668D01*
X661458Y308468D02*
X661998Y308468D01*
X669110Y316284D02*
X674096Y311400D01*
X669110Y316284D02*
X673994Y321270D01*
X678980Y316386D01*
X674096Y311400D01*
X678798Y316200D02*
X669196Y316200D01*
X673730Y321000D02*
X674270Y321000D01*
X681696Y272079D02*
X684919Y265888D01*
X681696Y272079D02*
X687887Y275302D01*
X691110Y269111D01*
X684919Y265888D01*
X682420Y270688D02*
X690289Y270688D01*
X700477Y273988D02*
X697254Y280179D01*
X703445Y283402D01*
X706668Y277211D01*
X700477Y273988D01*
X697978Y278788D02*
X705847Y278788D01*
X695465Y234246D02*
X696605Y227360D01*
X695465Y234246D02*
X702351Y235386D01*
X703491Y228500D01*
X696605Y227360D01*
X695810Y232160D02*
X702885Y232160D01*
X712769Y237110D02*
X713909Y230224D01*
X712769Y237110D02*
X719655Y238250D01*
X720795Y231364D01*
X713909Y230224D01*
X713114Y235024D02*
X720189Y235024D01*
X696790Y194027D02*
X695722Y187131D01*
X696790Y194027D02*
X703686Y192959D01*
X702618Y186063D01*
X695722Y187131D01*
X696300Y190863D02*
X703361Y190863D01*
X714124Y191343D02*
X713056Y184447D01*
X714124Y191343D02*
X721020Y190275D01*
X719952Y183379D01*
X713056Y184447D01*
X713634Y188179D02*
X720695Y188179D01*
X685525Y155373D02*
X682367Y149149D01*
X685525Y155373D02*
X691749Y152215D01*
X688591Y145991D01*
X682367Y149149D01*
X683200Y150791D02*
X691026Y150791D01*
X701167Y147437D02*
X698009Y141213D01*
X701167Y147437D02*
X707391Y144279D01*
X704233Y138055D01*
X698009Y141213D01*
X698842Y142855D02*
X706668Y142855D01*
X662794Y122141D02*
X657859Y117206D01*
X662794Y122141D02*
X667729Y117206D01*
X662794Y112271D01*
X657859Y117206D01*
X657994Y117071D02*
X667594Y117071D01*
X663064Y121871D02*
X662524Y121871D01*
X675196Y109739D02*
X670261Y104804D01*
X675196Y109739D02*
X680131Y104804D01*
X675196Y99869D01*
X670261Y104804D01*
X670396Y104669D02*
X679996Y104669D01*
X675466Y109469D02*
X674926Y109469D01*
X459688Y145489D02*
X456336Y151611D01*
X459688Y145489D02*
X453566Y142137D01*
X450214Y148259D01*
X456336Y151611D01*
X458895Y146937D02*
X450938Y146937D01*
X440950Y143187D02*
X444302Y137065D01*
X438180Y133713D01*
X434828Y139835D01*
X440950Y143187D01*
X443509Y138513D02*
X435552Y138513D01*
X445092Y183012D02*
X443808Y189872D01*
X445092Y183012D02*
X438232Y181728D01*
X436948Y188588D01*
X443808Y189872D01*
X444434Y186528D02*
X437334Y186528D01*
X426568Y186646D02*
X427852Y179786D01*
X420992Y178502D01*
X419708Y185362D01*
X426568Y186646D01*
X427194Y183302D02*
X420094Y183302D01*
X442897Y223214D02*
X443808Y230133D01*
X442897Y223214D02*
X435978Y224125D01*
X436889Y231044D01*
X443808Y230133D01*
X443529Y228014D02*
X436490Y228014D01*
X426418Y232423D02*
X425507Y225504D01*
X418588Y226415D01*
X419499Y233334D01*
X426418Y232423D01*
X426139Y230304D02*
X419100Y230304D01*
X453303Y262086D02*
X456330Y268375D01*
X453303Y262086D02*
X447014Y265113D01*
X450041Y271402D01*
X456330Y268375D01*
X455613Y266886D02*
X447867Y266886D01*
X437499Y269692D02*
X440526Y275981D01*
X437499Y269692D02*
X431210Y272719D01*
X434237Y279008D01*
X440526Y275981D01*
X439809Y274492D02*
X432063Y274492D01*
X475302Y295808D02*
X480133Y300845D01*
X475302Y295808D02*
X470265Y300639D01*
X475096Y305676D01*
X480133Y300845D01*
X479906Y300608D02*
X470297Y300608D01*
X474839Y305408D02*
X475375Y305408D01*
X467473Y312985D02*
X462642Y307948D01*
X457605Y312779D01*
X462436Y317816D01*
X467473Y312985D01*
X467246Y312748D02*
X457637Y312748D01*
X462179Y317548D02*
X462715Y317548D01*
X506701Y321011D02*
X512857Y324299D01*
X506701Y321011D02*
X503413Y327167D01*
X509569Y330455D01*
X512857Y324299D01*
X512049Y325811D02*
X504137Y325811D01*
X498439Y336483D02*
X504595Y339771D01*
X498439Y336483D02*
X495151Y342639D01*
X501307Y345927D01*
X504595Y339771D01*
X503787Y341283D02*
X495875Y341283D01*
X544382Y335193D02*
X551255Y336406D01*
X544382Y335193D02*
X543169Y342066D01*
X550042Y343279D01*
X551255Y336406D01*
X550622Y339993D02*
X543535Y339993D01*
X541336Y352467D02*
X548209Y353680D01*
X541336Y352467D02*
X540123Y359340D01*
X546996Y360553D01*
X548209Y353680D01*
X547576Y357267D02*
X540489Y357267D01*
X584605Y336949D02*
X591514Y335966D01*
X584605Y336949D02*
X585588Y343858D01*
X592497Y342875D01*
X591514Y335966D01*
X592197Y340766D02*
X585148Y340766D01*
X587077Y354315D02*
X593986Y353332D01*
X587077Y354315D02*
X588060Y361224D01*
X594969Y360241D01*
X593986Y353332D01*
X594669Y358132D02*
X587620Y358132D01*
D17*
G36*
X492187Y133523D02*
X497686Y139378D01*
X504269Y133197D01*
X498770Y127342D01*
X492187Y133523D01*
G37*
G36*
X485341Y126233D02*
X490840Y132088D01*
X497423Y125907D01*
X491924Y120052D01*
X485341Y126233D01*
G37*
G36*
X622264Y305773D02*
X618706Y298573D01*
X610610Y302575D01*
X614168Y309775D01*
X622264Y305773D01*
G37*
G36*
X626694Y314737D02*
X623136Y307537D01*
X615040Y311539D01*
X618598Y318739D01*
X626694Y314737D01*
G37*
G36*
X649467Y284764D02*
X643847Y279025D01*
X637395Y285344D01*
X643015Y291083D01*
X649467Y284764D01*
G37*
G36*
X656463Y291908D02*
X650843Y286169D01*
X644391Y292488D01*
X650011Y298227D01*
X656463Y291908D01*
G37*
G36*
X668783Y256332D02*
X661660Y252623D01*
X657489Y260634D01*
X664612Y264343D01*
X668783Y256332D01*
G37*
G36*
X677653Y260950D02*
X670530Y257241D01*
X666359Y265252D01*
X673482Y268961D01*
X677653Y260950D01*
G37*
G36*
X678297Y223303D02*
X670374Y221991D01*
X668899Y230901D01*
X676822Y232213D01*
X678297Y223303D01*
G37*
G36*
X688163Y224937D02*
X680240Y223625D01*
X678765Y232535D01*
X686688Y233847D01*
X688163Y224937D01*
G37*
G36*
X677056Y188954D02*
X669120Y190183D01*
X670502Y199108D01*
X678438Y197879D01*
X677056Y188954D01*
G37*
G36*
X686938Y187424D02*
X679002Y188653D01*
X680384Y197578D01*
X688320Y196349D01*
X686938Y187424D01*
G37*
G36*
X665198Y156693D02*
X658036Y160327D01*
X662122Y168381D01*
X669284Y164747D01*
X665198Y156693D01*
G37*
G36*
X674116Y152169D02*
X666954Y155803D01*
X671040Y163857D01*
X678202Y160223D01*
X674116Y152169D01*
G37*
G36*
X643893Y129721D02*
X638213Y135401D01*
X644599Y141787D01*
X650279Y136107D01*
X643893Y129721D01*
G37*
G36*
X650965Y122649D02*
X645285Y128329D01*
X651671Y134715D01*
X657351Y129035D01*
X650965Y122649D01*
G37*
G36*
X472255Y161524D02*
X479299Y165381D01*
X483637Y157460D01*
X476593Y153603D01*
X472255Y161524D01*
G37*
G36*
X463483Y156722D02*
X470527Y160579D01*
X474865Y152658D01*
X467821Y148801D01*
X463483Y156722D01*
G37*
G36*
X462023Y194338D02*
X469917Y195815D01*
X471579Y186938D01*
X463685Y185461D01*
X462023Y194338D01*
G37*
G36*
X452193Y192498D02*
X460087Y193975D01*
X461749Y185098D01*
X453855Y183621D01*
X452193Y192498D01*
G37*
G36*
X462506Y228706D02*
X470469Y227658D01*
X469290Y218704D01*
X461327Y219752D01*
X462506Y228706D01*
G37*
G36*
X452592Y230012D02*
X460555Y228964D01*
X459376Y220010D01*
X451413Y221058D01*
X452592Y230012D01*
G37*
G36*
X473664Y261215D02*
X480901Y257732D01*
X476984Y249595D01*
X469747Y253078D01*
X473664Y261215D01*
G37*
G36*
X464654Y265551D02*
X471891Y262068D01*
X467974Y253931D01*
X460737Y257414D01*
X464654Y265551D01*
G37*
G36*
X494376Y288644D02*
X500173Y283084D01*
X493922Y276566D01*
X488125Y282126D01*
X494376Y288644D01*
G37*
G36*
X487158Y295566D02*
X492955Y290006D01*
X486704Y283488D01*
X480907Y289048D01*
X487158Y295566D01*
G37*
G36*
X522593Y308269D02*
X526376Y301185D01*
X518409Y296931D01*
X514626Y304015D01*
X522593Y308269D01*
G37*
G36*
X517883Y317091D02*
X521666Y310007D01*
X513699Y305753D01*
X509916Y312837D01*
X517883Y317091D01*
G37*
G36*
X555517Y318144D02*
X556911Y310235D01*
X548017Y308666D01*
X546623Y316575D01*
X555517Y318144D01*
G37*
G36*
X553781Y327992D02*
X555175Y320083D01*
X546281Y318514D01*
X544887Y326423D01*
X553781Y327992D01*
G37*
G36*
X589878Y317285D02*
X588747Y309334D01*
X579806Y310607D01*
X580937Y318558D01*
X589878Y317285D01*
G37*
G36*
X591288Y327185D02*
X590157Y319234D01*
X581216Y320507D01*
X582347Y328458D01*
X591288Y327185D01*
G37*
D18*
X570000Y135070D03*
X595400Y279850D03*
D19*
X636040Y210000D03*
X503960Y210000D03*
D18*
X544600Y279850D03*
X595400Y135070D03*
X544600Y135070D03*
D20*
X626782Y80050D02*
X632180Y80050D01*
X632180Y85050D02*
X626782Y85050D01*
X626782Y90050D02*
X632180Y90050D01*
X632180Y95050D02*
X626782Y95050D01*
X626782Y100050D02*
X632180Y100050D01*
X632180Y105050D02*
X626782Y105050D01*
X622530Y109302D02*
X622530Y114700D01*
X617530Y114700D02*
X617530Y109302D01*
X612530Y109302D02*
X612530Y114700D01*
X607530Y114700D02*
X607530Y109302D01*
X602530Y109302D02*
X602530Y114700D01*
X597530Y114700D02*
X597530Y109302D01*
X593278Y105050D02*
X587880Y105050D01*
X587880Y100050D02*
X593278Y100050D01*
X593278Y95050D02*
X587880Y95050D01*
X587880Y90050D02*
X593278Y90050D01*
X593278Y85050D02*
X587880Y85050D01*
X587880Y80050D02*
X593278Y80050D01*
X597530Y75798D02*
X597530Y70400D01*
X602530Y70400D02*
X602530Y75798D01*
X607530Y75798D02*
X607530Y70400D01*
X612530Y70400D02*
X612530Y75798D01*
X617530Y75798D02*
X617530Y70400D01*
X622530Y70400D02*
X622530Y75798D01*
D21*
X610030Y92550D03*
D17*
X567540Y75000D03*
X577540Y75000D03*
X567540Y63750D03*
X577540Y63750D03*
D14*
X557300Y243970D03*
D15*
X582700Y243970D03*
D22*
X552259Y82550D02*
X546027Y82550D01*
X546027Y87550D02*
X552259Y87550D01*
X552259Y92550D02*
X546027Y92550D01*
X546027Y97550D02*
X552259Y97550D01*
X552259Y102550D02*
X546027Y102550D01*
X540020Y108557D02*
X540020Y114789D01*
X535020Y114789D02*
X535020Y108557D01*
X530020Y108557D02*
X530020Y114789D01*
X525020Y114789D02*
X525020Y108557D01*
X520020Y108557D02*
X520020Y114789D01*
X514013Y102550D02*
X507781Y102550D01*
X507781Y97550D02*
X514013Y97550D01*
X514013Y92550D02*
X507781Y92550D01*
X507781Y87550D02*
X514013Y87550D01*
X514013Y82550D02*
X507781Y82550D01*
X520020Y76543D02*
X520020Y70311D01*
X525020Y70311D02*
X525020Y76543D01*
X530020Y76543D02*
X530020Y70311D01*
X535020Y70311D02*
X535020Y76543D01*
X540020Y76543D02*
X540020Y70311D01*
D23*
X530020Y92550D03*
D24*
X569898Y97550D03*
X569898Y87550D03*
D25*
X440000Y80000D03*
X440000Y340000D03*
X700000Y340000D03*
X700000Y80000D03*
M02*
